<?xml version="1.0" standalone="no"?>
<!DOCTYPE svg PUBLIC "-//W3C//DTD SVG 1.1//EN" "http://www.w3.org/Graphics/SVG/1.1/DTD/svg11.dtd" >
<svg xmlns="http://www.w3.org/2000/svg">
<metadata>
Created by FontForge 20120731 at Fri Apr 22 11:36:47 2016
 By admin
</metadata>
<defs>
<font id="iconfont" horiz-adv-x="1024" >
  <font-face 
    font-family="iconfont"
    font-weight="500"
    font-stretch="normal"
    units-per-em="1024"
    panose-1="2 0 6 3 0 0 0 0 0 0"
    ascent="896"
    descent="-128"
    x-height="792"
    bbox="-0.490196 -128 1281.57 896"
    underline-thickness="50"
    underline-position="-100"
    unicode-range="U+0078-E95A"
  />
<missing-glyph horiz-adv-x="374" 
d="M34 0v682h272v-682h-272zM68 34h204v614h-204v-614z" />
    <glyph glyph-name=".notdef" horiz-adv-x="374" 
d="M34 0v682h272v-682h-272zM68 34h204v614h-204v-614z" />
    <glyph glyph-name=".null" horiz-adv-x="0" 
 />
    <glyph glyph-name="nonmarkingreturn" horiz-adv-x="341" 
 />
    <glyph glyph-name="x" unicode="x" horiz-adv-x="1001" 
d="M281 543q-27 -1 -53 -1h-83q-18 0 -36.5 -6t-32.5 -18.5t-23 -32t-9 -45.5v-76h912v41q0 16 -0.5 30t-0.5 18q0 13 -5 29t-17 29.5t-31.5 22.5t-49.5 9h-133v-97h-438v97zM955 310v-52q0 -23 0.5 -52t0.5 -58t-10.5 -47.5t-26 -30t-33 -16t-31.5 -4.5q-14 -1 -29.5 -0.5
t-29.5 0.5h-32l-45 128h-439l-44 -128h-29h-34q-20 0 -45 1q-25 0 -41 9.5t-25.5 23t-13.5 29.5t-4 30v167h911zM163 247q-12 0 -21 -8.5t-9 -21.5t9 -21.5t21 -8.5q13 0 22 8.5t9 21.5t-9 21.5t-22 8.5zM316 123q-8 -26 -14 -48q-5 -19 -10.5 -37t-7.5 -25t-3 -15t1 -14.5
t9.5 -10.5t21.5 -4h37h67h81h80h64h36q23 0 34 12t2 38q-5 13 -9.5 30.5t-9.5 34.5q-5 19 -11 39h-368zM336 498v228q0 11 2.5 23t10 21.5t20.5 15.5t34 6h188q31 0 51.5 -14.5t20.5 -52.5v-227h-327z" />
    <glyph glyph-name="uniE600" unicode="&#xe600;" 
d="M510 833q-91 0 -174 -36t-143 -96t-95.5 -143t-35.5 -174q0 -61 16 -119t45 -107t70.5 -90.5t91 -70.5t107.5 -45.5t118 -16.5q91 0 174 36t143 96t96 143t36 174t-35.5 174t-95.5 143t-143 96t-175 36zM510 -20q-109 0 -202 54t-147.5 147t-54.5 203q0 82 32 157
t86.5 129.5t129 86t156.5 31.5t157 -32t129 -86t86.5 -129t32.5 -157q0 -110 -54 -203t-147.5 -147t-203.5 -54zM406 613l-32 -31l176 -176h-267v-44h267l-176 -176l32 -31l207 207h97v44h-97z" />
    <glyph glyph-name="uniE601" unicode="&#xe601;" 
d="M510 832q-73 0 -141 -22.5t-123 -64t-96 -96.5t-63.5 -123t-22.5 -140q0 -91 35 -173.5t95 -142.5t142.5 -95.5t173 -35.5t173 35.5t142.5 95.5t95.5 142.5t35.5 173.5q0 72 -22.5 140t-64 123t-96 96.5t-123 64t-140.5 22.5zM510 -17q-109 0 -202 54t-147 146.5
t-54 202.5q0 82 32 156.5t86 128t128.5 85.5t156 32t156 -32t128.5 -86t86 -128.5t32 -155.5q0 -109 -54 -202t-146.5 -147t-201.5 -54zM340 418q-28 0 -47 -20t-19 -48v-185q0 -18 8.5 -34t24 -25t33.5 -9h153l-101 321h-52zM680 418h-52l-101 -321h153q27 0 46.5 20
t19.5 48v185q0 28 -19.5 48t-46.5 20zM696 203h-84q-9 0 -9 10q0 2 1 3l2 4q1 1 3 1.5t3 0.5h84q9 0 9 -9q0 -4 -2.5 -7t-6.5 -3zM632 548q0 52 -36 89t-86 37q-25 0 -47.5 -10t-39 -26.5t-26 -40t-9.5 -49.5t9.5 -49t26 -40t39 -27t47.5 -10q33 0 61 16.5t44.5 46
t16.5 63.5zM510 401l-60 -51l60 -190l60 190z" />
    <glyph glyph-name="uniE602" unicode="&#xe602;" 
d="M514 836q-72 0 -140.5 -23t-124 -64.5t-97 -96.5t-64 -123.5t-22.5 -141.5q0 -91 35.5 -174t95.5 -143t143 -96t174 -36t174 36t143.5 96t96 143t35.5 174t-35.5 174t-95.5 143t-143 96t-175 36zM514 -18q-109 0 -202 54t-147.5 147.5t-54.5 203.5t54.5 203t147.5 147.5
t202.5 54.5t202.5 -54.5t147.5 -148t54.5 -203t-54 -202.5t-147.5 -147.5t-203.5 -54.5zM179 374l39 -22l11 -2q10 0 15 12l96 212q9 18 -6 27l-42 22q-1 0 -1.5 0.5t-3.5 1t-5.5 0t-5.5 -3t-6 -7.5q0 -2 -10 -25t-24 -54.5t-28.5 -62.5t-24.5 -53l-10 -21l-1 -14
q1 -7 7 -10zM806 352l39 19q2 1 4.5 3t7 9t-1.5 16l-98 211q-1 3 -2.5 5.5t-7.5 7t-13 -0.5l-42 -22q-1 0 -3 -1.5t-5 -7.5t1 -14q1 -1 5 -8.5t10 -20.5t13.5 -29t15.5 -33.5t16 -35.5t15 -34t12.5 -28t8.5 -19l4 -8l8 -8q6 -4 13 -1zM272 353l13 29l46 -61q29 7 40 -13
q1 -1 2 -3.5t3.5 -11.5t-0.5 -19l7 -8q20 5 32 -10q2 -1 3.5 -3.5t4.5 -9.5t2 -16q8 -3 10 -8h18q7 -2 12 -8l1 -1q1 -1 3 -3.5t3.5 -5.5t2.5 -7t1 -8l18 -15q17 -1 20 -16l17 -13q1 0 3 -0.5t6.5 -1t8 0.5t7 5.5t3.5 12.5l-62 51q-1 2 -1.5 5.5t3 8.5t13.5 4l93 -71l12 -1
q8 2 13 10q9 13 -4 28l-99 76q-1 1 -1 2.5t-0.5 5t0.5 6t4.5 4.5t10.5 2l117 -89q1 0 2 -0.5t4.5 -1t6 0t6 2.5t5.5 5q9 14 0 27l-130 101q0 1 -0.5 1.5t-0.5 3.5v4q0 2 1 4.5t3 3.5t5 2t9 -1l133 -101q3 -1 6.5 -2t11 2t11.5 10q12 19 -3 35l-190 176q-3 2 -9.5 4
t-21.5 -2.5t-25 -20.5l-6 -25q-16 -40 -61 -48q-2 0 -4.5 0.5t-10 3t-11.5 6t-8 9.5t1 15l3 6q2 4 5.5 18.5t2.5 31.5q2 27 19 51h-68l15 33h103q5 3 13 7t27.5 10.5t33.5 5.5q42 -2 53 -9q6 -2 16 -5t31.5 -7.5t32.5 -2.5l92 -204l-15 -35q1 -1 3 -3.5t5.5 -9.5t5 -14
t0.5 -18t-7 -21q-4 -10 -15.5 -17t-27.5 -7q0 -2 0.5 -7.5t-2.5 -15t-10 -15.5q-2 -2 -4.5 -5t-13.5 -6.5t-24 -1.5q1 -2 0.5 -6t-5 -13.5t-12.5 -16.5q-3 -2 -7.5 -4.5t-20 -2t-30.5 11.5q-1 -3 -2.5 -7t-10.5 -12t-21 -10q-21 -3 -33 9q0 -1 -1 -2.5t-3.5 -5.5t-6 -7
t-8 -6.5t-9.5 -4.5t-11.5 0.5t-12.5 6.5l-2 2q-1 1 -3.5 5.5t-4 9t-0.5 11.5t4 14q-1 -2 -3 -5t-8 -8.5t-12.5 -8.5t-15.5 -1t-18 12q-2 1 -4 4t-4 14.5t7 23.5q-1 -1 -3 -2.5t-7.5 -5.5t-11.5 -5.5t-14 1t-16 10.5q-2 1 -4 4.5t-5 16t5 25.5l-3 -3q-2 -2 -7.5 -6t-12 -5.5
t-15 1.5t-16.5 11q-2 2 -3.5 4.5t-4 13t1.5 22.5l29 41z" />
    <glyph glyph-name="uniE603" unicode="&#xe603;" 
d="M510 832q-72 0 -140.5 -22.5t-124 -64t-97 -97t-64.5 -124t-23 -141.5t23 -141.5t64.5 -123.5t97 -97t124 -64.5t140.5 -22.5q92 0 175 35.5t143 96t96 143.5t36 174q0 73 -23 141.5t-64.5 124t-96.5 97t-123.5 64t-142.5 22.5zM510 -22q-109 0 -202.5 54t-148 147.5
t-54.5 203.5q0 83 32.5 158t86.5 129t129 86t157 32q110 0 203.5 -54t148 -147.5t54.5 -203.5q0 -157 -107 -274q-104 -113 -256 -129q-22 -2 -43 -2zM760 394h-54v50q0 6 -2 12t-6 11t-9 8.5t-11.5 5.5t-12.5 2q-18 0 -30 -11.5t-12 -27.5v-50h-54q-17 0 -29 -11.5
t-12 -27.5t12 -27.5t29 -11.5h54v-50q0 -17 12 -28t29.5 -11t29.5 11t12 28v50h54q11 0 20.5 5t15 14t5.5 19.5t-5.5 19.5t-15 14.5t-20.5 5.5zM436 471q45 0 77 29.5t32 71.5q0 28 -14.5 51.5t-39.5 37t-55 13.5q-44 0 -76 -30t-32 -72t32 -71.5t76 -29.5zM562 272
q-1 1 -11 -0.5t-24.5 3t-28.5 11t-22.5 24.5t-6.5 43q4 48 57 62q-21 13 -44 20t-47 7q-89 0 -152 -82.5t-63 -198.5v-16h429v16l-1 22q-14 0 -27 3.5t-27.5 12.5t-23.5 27.5t-8 45.5z" />
    <glyph glyph-name="uniE604" unicode="&#xe604;" 
d="M509 786q109 0 202 -54t147 -147.5t54 -203t-54 -202.5t-147 -147t-203 -54q-82 0 -156.5 32t-128.5 86t-86.5 129t-32.5 157q0 109 54.5 202.5t147.5 147.5t202 54h1zM508 831q-73 0 -141.5 -23t-123.5 -64.5t-96.5 -96.5t-64 -123.5t-22.5 -141.5q0 -91 35.5 -174.5
t95.5 -143.5t143 -95.5t174.5 -35.5t174.5 35.5t143 95.5t95.5 143.5t35.5 174.5t-35.5 174t-95.5 143.5t-143 96t-175 35.5v0zM382 611q12 2 23.5 -5.5t17.5 -15.5t15 -22q2 -2 2 -4q10 -14 14.5 -22t8 -22t0.5 -27q-1 -4 -3 -7.5t-5 -7t-5.5 -6t-7 -6t-6.5 -5.5
q-3 -2 -8.5 -6t-9 -7t-7 -7.5t-4.5 -9.5q-4 -14 1 -28.5t14 -28.5q30 -46 70 -79q33 -27 53 -23q14 3 33 23.5t36 22.5q4 2 10.5 0.5t10 -1.5t9.5 -3t8.5 -4.5t8 -5.5t7.5 -6t6.5 -6t6.5 -5.5t9 -7.5t10 -8.5t8.5 -8.5t8 -10t4.5 -10t1 -12q0 -7 -4.5 -13.5t-7 -8.5
t-10.5 -9l-8 -9q-6 -5 -11 -9t-9 -7q-36 -23 -86 -22q-38 1 -82 25q-57 30 -116 97q-60 67 -83 133q-15 47 -8 91t33 74l6 6q3 3 10 8.5t8 6.5q19 16 28 18z" />
    <glyph glyph-name="uniE605" unicode="&#xe605;" 
d="M546 -35q-105 0 -198 51.5t-151 145.5q-5 8 -3 17t9.5 14t16.5 3t14 -10q39 -64 98.5 -107.5t131.5 -59.5q149 -35 279 49q62 41 104 102t58 136q34 153 -48 286q-39 64 -99 107t-132 60t-144 4t-134 -54q-40 -26 -72.5 -61.5t-54.5 -77t-33.5 -88.5t-11.5 -96
q0 -9 -6 -16t-15 -7h-1q-5 0 -10 3t-8 8t-3 11q-1 32 3.5 63t12.5 60t20.5 57t28.5 53.5t35.5 48.5t42.5 43t49 37q69 46 149.5 60t161.5 -4q53 -13 101 -38.5t87.5 -63.5t69.5 -85q60 -97 64 -210t-46.5 -213.5t-145.5 -162.5q-101 -65 -220 -65zM688 177q-4 0 -8 1
t-7.5 3.5t-6.5 5.5l-156 159q-4 5 -6.5 11t-2.5 12v277q0 13 9.5 22.5t22.5 9.5t22 -9.5t9 -22.5v-264l146 -150q9 -9 9 -22.5t-9 -23t-22 -9.5zM154 363h-1q-1 0 -2 1q-10 1 -15 10l-73 119q-3 3 -3.5 7.5t0.5 9t3.5 8t6.5 5.5q7 5 16 3t14 -9l59 -98l77 67q4 4 9.5 5
t11 -1t9.5 -6.5t5 -10.5t-1 -11.5t-6 -9.5l-95 -83q-2 -2 -4.5 -3.5t-5 -2t-5.5 -0.5z" />
    <glyph glyph-name="uniE606" unicode="&#xe606;" 
d="M511 836q-91 0 -174.5 -35.5t-144 -96t-96 -144t-35.5 -174.5t35.5 -174.5t96 -143.5t144 -96t174.5 -36t174 36t143.5 96t96.5 143.5t36 174.5q0 73 -23 141.5t-64.5 124t-96.5 97.5t-124 64.5t-142 22.5zM511 -19q-110 0 -203.5 54t-148 147.5t-54.5 204t54.5 204
t148 147.5t203.5 54t203.5 -54.5t147.5 -148t54 -203.5q0 -47 -10.5 -92.5t-30.5 -85.5t-47.5 -75t-63 -63t-75.5 -48t-85.5 -30.5t-92.5 -10.5zM521 622q-12 6 -22 -2q-8 -8 -64 -51q-61 -47 -78 -52h-120q-4 0 -7 -1.5t-5.5 -4t-3.5 -5.5t-1 -7v-279q0 -17 17 -17h134
q15 -6 70 -52q24 -20 57 -50q6 -6 14 -6q2 0 4.5 0.5t4.5 1.5q12 6 12 19v487q0 3 -0.5 5t-1.5 4.5t-2.5 4t-3.5 3t-4 2.5zM499 150q-14 13 -30 26q-46 38 -66 50t-31 12h-104q-9 0 -12 3t-3 13v214q0 3 0.5 5.5t1.5 4.5t3.5 2.5t5.5 0.5h94q7 0 15 3.5t30.5 17.5t57.5 41
q10 7 19.5 14.5t18.5 14.5v-422zM701 360q0 20 -5 39t-14 35t-22 29.5t-29 23.5q-1 0 -2.5 1t-3.5 1.5t-4 0.5q-7 0 -12 -5t-5 -13q0 -10 9 -15q25 -15 39.5 -40.5t14.5 -56.5t-15 -57.5t-41 -40.5q-4 -3 -6 -7t-2 -8q0 -8 5 -13t12 -5l8 3q34 19 53.5 53t19.5 75zM682 576
q-6 4 -10 4t-7 -1.5t-5.5 -4t-3.5 -5.5t-1 -7q0 -10 9 -16q16 -9 30 -21t25.5 -26t20.5 -30t15.5 -33.5t9.5 -36.5t3 -39q0 -39 -13 -75t-36 -64.5t-54 -47.5q-10 -6 -11 -16q0 -7 5 -12t12 -5q5 0 10 3q55 34 88 91.5t33 125.5t-32.5 125.5t-87.5 90.5z" />
    <glyph glyph-name="uniE607" unicode="&#xe607;" 
d="M346 311v87q0 30 29 30h346l2 131q10 11 23.5 11t23.5 -11l187 -180q11 -10 11 -24.5t-11 -24.5l-187 -180q-10 -10 -25 -10t-26 10l1 130h-345q-29 0 -29 31zM948 674q0 49 -57 97.5t-113 48.5h-565q-47 -10 -83.5 -44.5t-52.5 -73.5v-616q6 -45 51 -83.5t106 -54.5h564
q56 0 103 47.5t47 97.5v21h62v-15q0 -88 -68.5 -150.5t-166.5 -62.5h-526q-97 0 -166 62.5t-69 150.5v570q0 88 69 150.5t166 62.5h526q98 0 166.5 -62.5t68.5 -150.5v-15h-62v20z" />
    <glyph glyph-name="uniE608" unicode="&#xe608;" 
d="M1010 99q0 -88 -68.5 -150.5t-165.5 -62.5h-527q-97 0 -166 62.5t-69 150.5v570q0 88 69 150.5t166 62.5h527q97 0 165.5 -62.5t68.5 -150.5v-15v-540v-15zM957 379l-187 180q-10 11 -25 11t-26 -11v-133h-337q-36 0 -36 -24v-87q0 -14 10.5 -24.5t25.5 -10.5h337v-130
q11 -10 26 -10t25 10l187 180q11 11 11 25t-11 24z" />
    <glyph glyph-name="uniE609" unicode="&#xe609;" 
d="M1011 634l-76 -281q-3 -12 -14 -18.5t-24 -3.5l-280 76q-13 3 -19.5 14t-3 23.5t14.5 19t24 3.5l212 -57q-6 97 -56 181.5t-136 135.5q-85 50 -182.5 52.5t-179.5 -39.5q-8 -13 -24 -13q-91 -53 -143 -145q-39 -70 -48.5 -149.5t9.5 -152t66 -136.5t115 -104
q116 -69 249 -49l-1 -1v-1q11 1 19 -3q10 -7 13.5 -18.5t-2.5 -21.5t-16.5 -13.5t-20.5 1.5v-2v-2q-145 -16 -271 58q-78 46 -132 120t-76 157.5t-11.5 175t56 172t117.5 135.5t153.5 77.5t171 11.5t168.5 -58q88 -52 144 -136.5t72 -183.5l51 191q4 13 15 19.5t23.5 3
t19 -14.5t3.5 -24z" />
    <glyph glyph-name="uniE60A" unicode="&#xe60a;" 
d="M346 93q-51 0 -87.5 44.5t-36.5 100.5v249q0 57 36.5 101.5t87.5 44.5h312q50 0 87 -44.5t37 -101.5v-249q0 -56 -37 -100.5t-87 -44.5h-312zM719 238v253q0 29 -18.5 54t-42.5 25h-312q-24 0 -43 -26.5t-19 -56.5v-249q0 -29 19 -56t43 -27h312q24 0 42.5 27t18.5 56z
M492 238q-9 0 -15 6t-6 15v21q0 9 6 14.5t15 5.5h166q8 0 14 -5.5t6 -14.5v-21q0 -9 -6 -15t-14 -6h-166zM647 425q-13 0 -22 9t-9 22t9 22t22 9t22 -9t9 -22t-9 -22t-22 -9zM502 425q-13 0 -22 9t-9 22t9 22t22 9t22 -9t9 -22t-9 -22t-22 -9zM357 238q-13 0 -22 9.5t-9 22
t9 21.5t22 9t22 -9t9 -21.5t-9 -22t-22 -9.5zM357 425q-13 0 -22 9t-9 22t9 22t22 9t22 -9t9 -22t-9 -22t-22 -9zM1010 378q0 -13 -9 -22t-22 -9t-22 9t-9 22q0 1 1 4v1h-1v1q0 88 -34.5 169t-93 139t-139 92.5t-169.5 34.5t-169.5 -34.5t-139 -92.5t-93 -139t-34.5 -169.5
t34.5 -169t93 -139t139 -93t169.5 -34.5q113 0 210 54t156 146h5q1 12 9.5 20t20.5 8q11 0 19.5 -8t10.5 -19h8l-9 -15q-1 -4 -5 -9q-67 -109 -179.5 -174t-245.5 -65q-101 0 -193.5 39.5t-159 106t-106 159t-39.5 193.5t39.5 193t106 159t159 106.5t193.5 39.5t193 -39.5
t159 -106t106.5 -158.5t39.5 -193h-1q1 -6 1 -7z" />
    <glyph glyph-name="uniE60B" unicode="&#xe60b;" 
d="M979 363h-425v-446q0 -13 -9 -22t-22 -9t-22 9t-9 22v446h-447q-13 0 -22 9t-9 22t9 22t22 9h447v426q0 13 9 22t22 9t22 -9t9 -22v-426h425q13 0 22 -9t9 -22t-9 -22t-22 -9z" />
    <glyph glyph-name="uniE60C" unicode="&#xe60c;" 
d="M523 654q13 0 22 -9.5t9 -22.5v-217h218q13 0 22 -9.5t9 -22.5t-9 -22t-22 -9h-218v-218q0 -13 -9 -22t-22 -9t-22 9t-9 22v218h-218q-13 0 -22.5 9t-9.5 22t9.5 22.5t22.5 9.5h218v217q0 13 9 22.5t22 9.5zM1010 378q0 -13 -9 -22t-22 -9t-22 9t-9 22l1 6h-1
q0 89 -34.5 169.5t-93 139t-139 93t-169.5 34.5t-169.5 -34.5t-139 -93t-93 -139t-34.5 -169.5t34.5 -169.5t93 -139t139 -93t169.5 -34.5q113 0 210 54.5t156 146.5h5q1 11 9.5 19t20.5 8q11 0 19.5 -7.5t10.5 -19.5l8 1q0 -1 -9 -16q-1 -4 -5 -8q-67 -110 -179.5 -175
t-245.5 -65q-101 0 -193.5 39.5t-159 106t-106 159t-39.5 193.5t39.5 193.5t106 159t159 106t193.5 39.5t193 -39.5t159 -106t106.5 -158.5t39.5 -193h-1q1 -6 1 -7z" />
    <glyph glyph-name="uniE60D" unicode="&#xe60d;" 
d="M512.5 -114q-101.5 0 -194 39.5t-159 106t-106 158.5t-39.5 193.5t39.5 194t106 159t159 106t194 39.5t193.5 -39.5t158.5 -106t106 -159t39.5 -194t-39.5 -193.5t-106 -158.5t-158.5 -106t-193.5 -39.5zM803 384q0 4 -1 7.5t-2 5.5t-4 3l-5 3q-2 1 -6.5 1.5t-6.5 0.5h-8
h-9h-207v207v9v8q0 2 -0.5 6.5t-1 6.5t-2 5t-4 4t-6 2t-7.5 1h-21q-4 0 -7.5 -1t-5.5 -2t-3 -4l-3 -5q-1 -2 -1.5 -6.5t-0.5 -6.5t0.5 -8t0.5 -9v-207h-208h-8h-9q-2 0 -6.5 -0.5t-6.5 -1.5t-4.5 -2.5t-4 -3.5t-2 -5.5t-0.5 -7.5v-21q0 -4 0.5 -7.5t2 -6t4 -3.5t4.5 -2
t6.5 -1.5t6.5 -0.5h9h8h208v-207q0 -3 -0.5 -9t-0.5 -8t0.5 -6.5t1.5 -6.5l3 -5q1 -3 3 -4t5.5 -2t7.5 -1h21q4 0 7.5 1t6 2t4 4t2 5t1 6.5t0.5 6.5v8v9v207h207h9h8q2 0 6.5 0.5t6.5 1t5 2t4 4t2 6t1 7.5v21z" />
    <glyph glyph-name="uniE60E" unicode="&#xe60e;" 
d="M429 195v377q20 21 49 21t50 -21l135 -138q21 -21 21 -50.5t-21 -50.5l-135 -138q-21 -21 -50 -21t-49 21zM1010 378q0 -13 -9 -22t-22 -9t-22 9t-9 22v3l1 2h-1v1q0 88 -34.5 169t-93 139t-139 92.5t-169.5 34.5t-169.5 -34.5t-139 -92.5t-93 -139t-34.5 -169.5
t34.5 -169t93 -139t139 -93t169.5 -34.5q113 0 210 54t156 146h5q1 12 9.5 20t20.5 8q11 0 19.5 -8t10.5 -19h8l-9 -15q-1 -4 -5 -9q-67 -109 -179.5 -174t-245.5 -65q-101 0 -193.5 39.5t-159 106t-106 158.5t-39.5 193.5t39.5 193.5t106 159t159 106.5t193.5 39.5
t193 -39.5t159 -106t106.5 -158.5t39.5 -193h-1q1 -6 1 -7z" />
    <glyph glyph-name="uniE60F" unicode="&#xe60f;" 
d="M512 -114q-101 0 -193.5 39.5t-159 106t-106 159t-39.5 193.5t39.5 193t106 159t159 106.5t193.5 39.5t193.5 -39.5t159 -106.5t106 -159t39.5 -193t-39.5 -193.5t-106 -159t-159 -106t-193.5 -39.5zM663 434l-135 138q-21 21 -50 21t-49 -21v-377q20 -21 49 -21t50 21
l135 138q21 21 21 50.5t-21 50.5z" />
    <glyph glyph-name="uniE610" unicode="&#xe610;" 
d="M737 882h-449q-45 0 -76.5 -32.5t-31.5 -77.5v-776q0 -46 31.5 -78t76.5 -32h449q44 0 75.5 32t31.5 78v776q0 45 -31.5 77.5t-75.5 32.5zM512.5 -58q-33.5 0 -57.5 24.5t-24 59t24 59t57.5 24.5t57.5 -24.5t24 -59t-24 -59t-57.5 -24.5zM782 156h-539v622q0 15 13 28.5
t28 13.5h457q14 0 27.5 -13.5t13.5 -28.5v-622z" />
    <glyph glyph-name="uniE611" unicode="&#xe611;" 
d="M575 144.5q0 -21.5 -15.5 -36.5t-37 -15t-36.5 15t-15 36.5t15 37t36.5 15.5t37 -15.5t15.5 -37zM533 259h-21q-4 0 -7 0.5t-5 2t-3.5 3t-2.5 4.5l-2 5v5.5t-0.5 6t0 7.5t0.5 8v332q0 1 -0.5 7t0 7.5t0.5 6v6.5l2 4q1 3 2.5 4.5t3.5 3t5 2t7 0.5h21q4 0 7 -0.5t5 -2
t3.5 -3t2.5 -4.5l1 -4q1 -2 1.5 -6.5t0.5 -5.5v-8v-7v-312v-6q0 -12 -0.5 -19t-2 -17t-6 -15t-12.5 -5zM1010 378q0 -13 -9 -22t-22 -9t-22 9t-9 22v3l1 2h-1v1q0 88 -34.5 169t-93 139t-139 92.5t-169.5 34.5t-169.5 -34.5t-139 -92.5t-93 -139t-34.5 -169.5t34.5 -169
t93 -139t139 -93t169.5 -34.5q113 0 210 54t156 146h5q1 12 9.5 20t20.5 8q11 0 19.5 -8t10.5 -19h8l-9 -15q-1 -4 -5 -9q-67 -109 -179.5 -174t-245.5 -65q-101 0 -193.5 39.5t-159 106t-106 158.5t-39.5 193.5t39.5 193.5t106 159t159 106.5t193.5 39.5t193 -39.5
t159 -106t106.5 -158.5t39.5 -193h-1q1 -6 1 -7z" />
    <glyph glyph-name="uniE612" unicode="&#xe612;" 
d="M512 -114q-101 0 -193.5 39.5t-159 106t-106 159t-39.5 193.5t39.5 193t106 159t159 106.5t193.5 39.5t193.5 -39.5t159 -106.5t106 -159t39.5 -193t-39.5 -193.5t-106 -159t-159 -106t-193.5 -39.5zM533 674h-21q-4 0 -7 -0.5t-5 -2t-3.5 -3t-2.5 -4.5l-2 -4v-6.5
t-0.5 -6t0 -7.5t0.5 -7v-332q0 -2 -0.5 -8t0 -7.5t0.5 -6v-5.5l2 -5q1 -3 2.5 -4.5t3.5 -3t5 -2t7 -0.5h21q8 0 12.5 5t6 15t2 17t0.5 19v6v312v7v8q0 1 -0.5 5.5t-1.5 6.5l-1 4q-1 3 -2.5 4.5t-3.5 3t-5 2t-7 0.5zM522.5 197q-21.5 0 -36.5 -15.5t-15 -37t15 -36.5
t36.5 -15t36.5 15t15 36.5t-15 37t-36.5 15.5z" />
    <glyph glyph-name="uniE613" unicode="&#xe613;" 
d="M886 156h-747q-52 0 -88.5 36t-36.5 88v104q0 8 6 14.5t15 6.5h21q8 0 14 -6.5t6 -14.5v-62q0 -104 104 -104h664q104 0 104 104v332q0 103 -104 103h-664q-104 0 -104 -103v-63q0 -8 -6 -14t-14 -6h-21q-9 0 -15 6t-6 14v104q0 52 36.5 88.5t88.5 36.5h747
q51 0 87.5 -36.5t36.5 -88.5v-415q0 -52 -36.5 -88t-87.5 -36zM170 10h221l28 42q0 17 12 29t29 12h104q17 0 29.5 -12t12.5 -29l27 -42h222q13 0 22 -9t9 -22t-9 -22t-22 -9h-685q-13 0 -22 9t-9 22t9 22t22 9z" />
    <glyph glyph-name="uniE614" unicode="&#xe614;" 
d="M886 156h-747q-52 0 -88.5 36t-36.5 88v415q0 52 36.5 88.5t88.5 36.5h747q51 0 87.5 -36.5t36.5 -88.5v-415q0 -52 -36.5 -88t-87.5 -36zM170 10h221l28 42q0 17 12 29t29 12h104q17 0 29.5 -12t12.5 -29l27 -42h222q13 0 22 -9t9 -22t-9 -22t-22 -9h-685q-13 0 -22 9
t-9 22t9 22t22 9z" />
    <glyph glyph-name="uniE615" unicode="&#xe615;" 
d="M45 415h934q13 0 22 -9t9 -22t-9 -22t-22 -9h-934q-13 0 -22 9t-9 22t9 22t22 9z" />
    <glyph glyph-name="uniE616" unicode="&#xe616;" 
d="M761 342h-477h-5q-13 0 -19 0.5t-11.5 5.5t-5.5 15v21q0 9 5.5 14t11.5 5.5t19 0.5h5h477h6q13 0 19 -0.5t11.5 -5.5t5.5 -14v-21q0 -10 -5.5 -15t-11.5 -5.5t-19 -0.5h-6zM1010 378q0 -13 -9 -22t-22 -9t-22 9t-9 22q0 1 1 4v1h-1v1q0 88 -34.5 169t-93 139t-139 92.5
t-169.5 34.5t-169.5 -34.5t-139 -92.5t-93 -139t-34.5 -169.5t34.5 -169t93 -139t139 -93t169.5 -34.5q113 0 210 54t156 146h5q1 12 9.5 20t20.5 8q11 0 19.5 -8t10.5 -19h8l-9 -15q-1 -4 -5 -9q-67 -109 -179.5 -174t-245.5 -65q-101 0 -193.5 39.5t-159 106t-106 159
t-39.5 193.5t39.5 193t106 159t159 106.5t193.5 39.5t193 -39.5t159 -106t106.5 -158.5t39.5 -193h-1q1 -6 1 -7z" />
    <glyph glyph-name="uniE617" unicode="&#xe617;" 
d="M512 -114q-101 0 -193.5 39.5t-159 106t-106 159t-39.5 193.5t39.5 193t106 159t159 106.5t193.5 39.5t193.5 -39.5t159 -106.5t106 -159t39.5 -193t-39.5 -193.5t-106 -159t-159 -106t-193.5 -39.5zM803 384q0 9 -5.5 14t-11.5 5.5t-19 0.5h-6h-477h-5q-13 0 -19 -0.5
t-11.5 -5.5t-5.5 -14v-21q0 -10 5.5 -15t11.5 -5.5t19 -0.5h5h477h6q13 0 19 0.5t11.5 5.5t5.5 15v21z" />
    <glyph glyph-name="uniE618" unicode="&#xe618;" 
d="M979 218h-726q-13 0 -22 9t-9 22t9 22t22 9h726q13 0 22 -9t9 -22t-9 -22t-22 -9zM979 488h-726q-13 0 -22 9t-9 22t9 22t22 9h726q13 0 22 -9t9 -22t-9 -22t-22 -9zM979 737h-726q-13 0 -22 9t-9 22t9 22t22 9h726q13 0 22 -9t9 -22t-9 -22t-22 -9zM66.5 -52
q-21.5 0 -37 15t-15.5 36.5t15.5 37t37 15.5t36.5 -15.5t15 -37t-15 -36.5t-36.5 -15zM66.5 197q-21.5 0 -37 15t-15.5 36.5t15.5 37t37 15.5t36.5 -15.5t15 -37t-15 -36.5t-36.5 -15zM66.5 467q-21.5 0 -37 15t-15.5 36.5t15.5 37t37 15.5t36.5 -15.5t15 -37t-15 -36.5
t-36.5 -15zM66.5 716q-21.5 0 -37 15t-15.5 36.5t15.5 37t37 15.5t36.5 -15.5t15 -37t-15 -36.5t-36.5 -15zM253 31h726q13 0 22 -9t9 -22t-9 -22t-22 -9h-726q-13 0 -22 9t-9 22t9 22t22 9z" />
    <glyph glyph-name="uniE619" unicode="&#xe619;" 
d="M326 633q0 8 6 14.5t14 6.5h478q8 0 14 -6.5t6 -14.5v-21q0 -9 -6 -15t-14 -6h-478q-8 0 -14 6t-6 15v21zM346 197h478q8 0 14 -6t6 -15v-20q0 -9 -6 -15t-14 -6h-478q-8 0 -14 6t-6 15v20q0 9 6 15t14 6zM326 405q0 8 6 14t14 6h478q8 0 14 -6t6 -14v-21q0 -9 -6 -15
t-14 -6h-478q-8 0 -14 6t-6 15v21zM211 654q13 0 22.5 -9.5t9.5 -22t-9.5 -22t-22 -9.5t-22 9.5t-9.5 22t9 22t22 9.5zM211 197q13 0 22.5 -9t9.5 -22t-9.5 -22t-22 -9t-22 9t-9.5 22t9 22t22 9zM211 425q13 0 22.5 -9t9.5 -22t-9.5 -22t-22 -9t-22 9t-9.5 22t9 22t22 9z
M886 -52h-747q-52 0 -88.5 36.5t-36.5 88.5v207q0 9 6 15t15 6h21q8 0 14 -6t6 -15v-166q0 -104 104 -104h664q104 0 104 104v540q0 103 -104 103h-664q-104 0 -104 -103v-166q0 -9 -6 -15t-14 -6h-21q-9 0 -15 6t-6 15v207q0 52 36.5 88.5t88.5 36.5h747q51 0 87.5 -36.5
t36.5 -88.5v-622q0 -52 -36.5 -88.5t-87.5 -36.5z" />
    <glyph glyph-name="uniE61A" unicode="&#xe61a;" 
d="M886 -52h-747q-52 0 -88.5 36.5t-36.5 88.5v622q0 52 36.5 88.5t88.5 36.5h747q51 0 87.5 -36.5t36.5 -88.5v-622q0 -52 -36.5 -88.5t-87.5 -36.5zM211.5 654q-12.5 0 -22 -9.5t-9.5 -22t9 -22t22 -9.5t22.5 9.5t9.5 22t-9.5 22t-22 9.5zM211.5 425q-12.5 0 -22 -9
t-9.5 -22t9 -22t22 -9t22.5 9t9.5 22t-9.5 22t-22 9zM211.5 197q-12.5 0 -22 -9t-9.5 -22t9 -22t22 -9t22.5 9t9.5 22t-9.5 22t-22 9zM844 633q0 8 -6 14.5t-14 6.5h-478q-8 0 -14 -6.5t-6 -14.5v-21q0 -9 6 -15t14 -6h478q8 0 14 6t6 15v21zM844 405q0 8 -6 14t-14 6h-478
q-8 0 -14 -6t-6 -14v-21q0 -9 6 -15t14 -6h478q8 0 14 6t6 15v21zM844 176q0 9 -6 15t-14 6h-478q-8 0 -14 -6t-6 -15v-20q0 -9 6 -15t14 -6h478q8 0 14 6t6 15v20z" />
    <glyph glyph-name="uniE61B" unicode="&#xe61b;" 
d="M1010 301v-228q0 -52 -36.5 -88.5t-87.5 -36.5h-747q-52 0 -88.5 36.5t-36.5 88.5v228h7q198 249 263 249q25 0 49 -20t42 -50t38.5 -65t37.5 -65t39 -50t43 -20q17 0 44 19.5t52 43t56 43t56 19.5q55 0 207 -160v409q0 103 -104 103h-664q-103 0 -103 -103v-125
q0 -9 -6.5 -15t-14.5 -6h-21q-9 0 -15 6t-6 15v166q0 52 36.5 88.5t88.5 36.5h747q51 0 87.5 -36.5t36.5 -88.5v-394zM741 322q-16 0 -40.5 -19.5t-48 -43t-56.5 -43t-63 -19.5q-44 0 -82 25.5t-62 62.5t-43 73.5t-34.5 62t-27.5 25.5q-38 0 -207 -203v-150q0 -49 24 -66
t79 -17h664q56 0 80 17t24 66v40q-165 189 -207 189z" />
    <glyph glyph-name="uniE61C" unicode="&#xe61c;" 
d="M1010 280v-102q-203 227 -269 227q-25 0 -56 -19.5t-56 -43t-52 -43t-44 -19.5q-25 0 -50.5 28t-47 67.5t-44 79t-50.5 67.5t-57 28q-66 0 -270 -257v402q0 52 36.5 88.5t88.5 36.5h747q51 0 87.5 -36.5t36.5 -88.5v-415zM284 446q12 0 27.5 -25.5t34.5 -62t43 -73.5
t62 -62.5t82 -25.5q30 0 63 19.5t56.5 43t48 43t40.5 19.5q51 0 268 -260q-4 -48 -39.5 -81t-83.5 -33h-747q-52 0 -88.5 36.5t-36.5 88.5v94q224 279 270 279zM1010 61v1h-1q0 1 0.5 4.5t0.5 6.5v-12zM14 167z" />
    <glyph glyph-name="uniE61D" unicode="&#xe61d;" 
d="M892.5 590q-31.5 0 -53.5 22.5t-22 54t22 54t53.5 22.5t54 -22.5t22.5 -54t-22.5 -54t-54 -22.5zM718 105l-104 -164v-18q0 -10 -7 -16.5t-16 -6.5h-157q-10 0 -16.5 6.5t-6.5 16.5v30q0 5 2 8l-87 126q-2 2 -3 4q-56 44 -89 108t-33 137q0 83 42.5 154.5t114.5 114
t154.5 42.5t154.5 -42.5t114.5 -114t42.5 -154.5q0 -67 -28 -127t-78 -104zM512 585q-61 0 -119 -35.5t-94 -93.5t-36 -120q0 -55 28 -106.5t75 -88.5l114 -164h14q2 -7 -5 -15h54q-2 7 0 15h4l112 165q47 37 74.5 88.5t27.5 105.5q0 62 -35.5 120t-93.5 93.5t-120 35.5z
M512.5 743q-31.5 0 -54 22.5t-22.5 54t22.5 54t54 22.5t53.5 -22.5t22 -54t-22 -54t-53.5 -22.5zM131.5 590q-31.5 0 -53.5 22.5t-22 54t22 54t53.5 22.5t54 -22.5t22.5 -54t-22.5 -54t-54 -22.5z" />
    <glyph glyph-name="uniE61E" unicode="&#xe61e;" 
d="M892.5 569q-31.5 0 -53.5 22.5t-22 54t22 54t53.5 22.5t54 -22.5t22.5 -54t-22.5 -54t-54 -22.5zM718 85l-104 -165v-18q0 -9 -7 -16t-16 -7h-157q-10 0 -16.5 7t-6.5 16v30q0 6 2 8l-87 126q-2 2 -3 4q-56 44 -89 108.5t-33 136.5q0 83 42.5 155t114.5 114t154.5 42
t154.5 -42t114.5 -114t42.5 -155q0 -67 -28 -126.5t-78 -103.5zM512.5 722q-31.5 0 -54 22.5t-22.5 54t22.5 54t54 22.5t53.5 -22.5t22 -54t-22 -54t-53.5 -22.5zM131.5 569q-31.5 0 -53.5 22.5t-22 54t22 54t53.5 22.5t54 -22.5t22.5 -54t-22.5 -54t-54 -22.5z" />
    <glyph glyph-name="uniE61F" unicode="&#xe61f;" 
d="M523 150l-187 180q-11 10 -11 24.5t11 24.5l187 180q10 11 23.5 11t24.5 -11l1 -131h346q29 0 29 -30v-87q0 -31 -29 -31h-345l1 -130q-11 -10 -26 -10t-25 10zM948 674q0 49 -57 97.5t-113 48.5h-565q-47 -10 -83.5 -44.5t-52.5 -73.5v-616q6 -45 51 -83.5t106 -54.5
h564q56 0 103 47.5t47 97.5v21h62v-15q0 -88 -68.5 -150.5t-165.5 -62.5h-527q-97 0 -166 62.5t-69 150.5v570q0 88 69 150.5t166 62.5h527q97 0 165.5 -62.5t68.5 -150.5v-15h-62v20z" />
    <glyph glyph-name="uniE620" unicode="&#xe620;" 
d="M1010 99q0 -88 -68.5 -150.5t-165.5 -62.5h-527q-97 0 -166 62.5t-69 150.5v570q0 88 69 150.5t166 62.5h527q97 0 165.5 -62.5t68.5 -150.5v-15v-540v-15zM947 402q0 24 -36 24h-337v133q-11 11 -26 11t-25 -11l-187 -180q-11 -10 -11 -24.5t11 -24.5l187 -180
q10 -10 25 -10t26 10v130h337q15 0 25.5 10.5t10.5 24.5v87z" />
    <glyph glyph-name="uniE621" unicode="&#xe621;" 
d="M834 167q0 -116 -87 -198.5t-210 -82.5h-49q-123 0 -210 82.5t-87 198.5q0 115 85.5 197.5t206.5 83.5q-2 6 -2 8v395q0 13 9 22t22 9t22 -9t9 -22v-73h115q12 0 21.5 -9t9.5 -22t-9.5 -22t-21.5 -9h-115v-260q0 -2 -1 -8q121 -1 206.5 -83.5t85.5 -197.5zM537 384h-49
q-88 0 -161 -68t-73 -149t73 -148.5t161 -67.5h49q88 0 160.5 67.5t72.5 148.5t-72.5 149t-160.5 68z" />
    <glyph glyph-name="uniE622" unicode="&#xe622;" 
d="M895 304q-49 -106 -139.5 -172t-201.5 -77v-107h83q5 0 14.5 0.5t12.5 0t7.5 -2t5.5 -6.5t1 -13q0 -20 -13 -30.5t-36 -10.5h-220q-42 0 -42 41q0 9 1 13.5t5.5 6t7.5 2t12.5 0t15.5 -0.5h83v105q-117 6 -214 72.5t-148 178.5q-11 18 -10 34.5t19 24.5t35 -5.5t27 -35.5
q41 -89 130.5 -149.5t181 -60.5t181 60.5t130.5 149.5q10 22 27 35.5t35 5.5t18.5 -24.5t-9.5 -34.5zM637 384q0 11 5 16t16 5q41 0 41 -42q0 -86 -53 -127.5t-134 -41.5q-69 0 -113.5 44.5t-52.5 103.5v374q3 62 50 114t116 52q77 0 124.5 -39.5t62.5 -126.5v-104
q0 -24 -5 -33t-25 -10q-22 0 -27.5 9.5t-4.5 33.5v125q-15 29 -30.5 47t-33 25t-29.5 9t-32 2q-34 0 -58.5 -18t-44.5 -65v-395q11 -38 41 -60.5t62 -22.5q24 0 46.5 6t45.5 26t33 51v9q0 7 -0.5 15t0.5 18z" />
    <glyph glyph-name="uniE623" unicode="&#xe623;" 
d="M895 304q-49 -106 -139.5 -172t-201.5 -77v-107h83q5 0 14.5 0.5t12.5 0t7.5 -2t5.5 -6.5t1 -13q0 -20 -13 -30.5t-36 -10.5h-220q-42 0 -42 41q0 9 1 13.5t5.5 6t7.5 2t12.5 0t15.5 -0.5h83v105q-117 6 -214 72.5t-148 178.5q-11 18 -10 34.5t19 24.5t35 -5.5t27 -35.5
q41 -89 130.5 -149.5t181 -60.5t181 60.5t130.5 149.5q10 22 27 35.5t35 5.5t18.5 -24.5t-9.5 -34.5zM692 308q-17 -58 -65.5 -86.5t-114.5 -28.5q-69 0 -113.5 45t-52.5 104v374q3 62 50 114t116 52q77 0 124.5 -39.5t62.5 -126.5v-394q0 -5 -7 -14z" />
    <glyph glyph-name="uniE624" unicode="&#xe624;" 
d="M1010 758l-216 -108q-13 -17 -33 -17q-18 0 -30 12t-12 29.5t12 29.5t30 12l83 42h-692l339 -146q130 0 220.5 -90t90.5 -221q0 -132 -88.5 -221.5t-217.5 -89.5q-85 0 -157.5 40.5t-115.5 112.5t-43 158q0 93 48 168t128 113l-301 134q-17 8 -29 23t-11 31q-1 5 -1 8
q0 41 54 41h865q20 0 34 -6q37 8 43 -14q4 -17 0 -41zM242 301q0 -103 73 -176t176 -73t176 73t73 176t-73 176t-176 73t-176 -73t-73 -176z" />
    <glyph glyph-name="uniE625" unicode="&#xe625;" 
d="M1010 716l-216 -108q-13 -17 -33 -17q-18 0 -30 12.5t-12 29.5t12 29t30 12v1l83 41h-692l339 -145q130 0 220.5 -90t90.5 -221q0 -132 -88.5 -222t-217.5 -90q-85 0 -157.5 41t-115.5 113t-43 158q0 93 48 168t128 113l-301 134q-17 7 -29 22t-11 32q-1 4 -1 8
q0 41 54 41h865q20 0 34 -7q37 9 43 -13q4 -17 0 -42z" />
    <glyph glyph-name="uniE626" unicode="&#xe626;" 
d="M907 508q-13 0 -22.5 9.5t-9.5 21.5v252q-3 -5 -4 -7l-226 -265q55 -43 90.5 -105t43.5 -134h-9q-8 -21 -29.5 -21t-28.5 21h-3q-15 104 -94 173.5t-183 69.5q-117 0 -199 -83.5t-82 -201t82 -201t199 -83.5q72 0 134.5 35t100.5 95l8 -2q10 11 24 11q12 0 20.5 -7.5
t9.5 -19.5l7 -2q-2 -4 -8 -14l-1 -1q-47 -75 -124.5 -119t-168.5 -44q-94 0 -174 47t-126.5 128.5t-46.5 177t46.5 177t126.5 128.5t174 47q85 0 161 -40l229 269h-229q-13 0 -22 9t-9 22t9 22t22 9h311q13 0 22.5 -9t9.5 -22v-311q0 -13 -9.5 -22.5t-22.5 -9.5h1z" />
    <glyph glyph-name="uniE627" unicode="&#xe627;" 
d="M907 508q-13 0 -22.5 9.5t-9.5 21.5v252q-3 -5 -4 -7l-227 -265q64 -49 101 -122.5t37 -157.5q0 -96 -46.5 -177.5t-126.5 -128.5t-174.5 -47t-174.5 47t-126.5 128.5t-46.5 177t46.5 177t126.5 128.5t174 47q85 0 161 -40l229 269h-229q-13 0 -22 9t-9 22t9 22t22 9h312
q12 0 21.5 -9t9.5 -22v-311q0 -13 -9.5 -22.5t-21.5 -9.5z" />
    <glyph glyph-name="uniE628" unicode="&#xe628;" 
d="M999 -96q-8 -11 -21.5 -12.5t-24.5 6.5l-264 207q-1 0 -2.5 1.5t-2.5 1.5l-9 7v1l-1 1q-25 21 -35 29q78 49 124.5 130t46.5 177q0 99 -48.5 182.5t-132.5 132t-182.5 48.5t-182 -48.5t-132 -132t-48.5 -182.5t48.5 -182.5t132 -132t182.5 -48.5q2 0 5.5 0.5t4.5 0.5v-63
h-10q-116 0 -214 57t-154.5 155t-56.5 213.5t56.5 213t154.5 154.5t213.5 57t213.5 -57t155 -154.5t57 -213.5q0 -88 -34.5 -167t-96.5 -139l253 -197q11 -9 12.5 -22.5t-7.5 -23.5z" />
    <glyph glyph-name="uniE629" unicode="&#xe629;" 
d="M998 -98q-9 -10 -22.5 -11.5t-24.5 6.5l-263 206q-110 -76 -243 -76q-116 0 -214 57t-154.5 155t-56.5 213.5t56.5 213.5t154.5 155t214 57t214 -57t154.5 -155t56.5 -214q0 -88 -34.5 -167.5t-95.5 -138.5l252 -197q11 -9 12.5 -22.5t-6.5 -24.5z" />
    <glyph glyph-name="uniE62A" unicode="&#xe62a;" 
d="M345 466.5q0 69.5 49 118.5t118.5 49t118.5 -49t49 -118.5t-49 -118.5t-118.5 -49t-118.5 49t-49 118.5zM615 466.5q0 42.5 -30 73t-73 30.5t-73.5 -30.5t-30.5 -73t30.5 -73t73.5 -30.5t73 30.5t30 73zM879 661q3 -4 4 -8q44 -87 44 -184q0 -157 -104 -274q-3 -5 -8 -10
l-267 -280q-2 -5 -5 -9q-20 -20 -47 -8q-8 4 -14 10v1l-1 1l-272 285q-7 7 -10 13q-101 117 -101 271q0 112 55.5 207.5t151 151t207.5 55.5q107 0 200 -51l-2 -1q9 -9 9 -20l1 -3q0 -12 -9 -21t-21 -9q-10 -1 -19 5v-1q-75 37 -159 37q-96 0 -177 -46t-128.5 -125
t-47.5 -172q0 -130 87 -234q16 -23 36 -47l230 -230l242 244q15 20 28 39q83 102 83 228q0 78 -36 149q-5 8 -5 15l-1 3q0 12 9 21t21 10q6 0 12 -2l5 5q3 -5 9 -16z" />
    <glyph glyph-name="uniE62B" unicode="&#xe62b;" 
d="M881 658q46 -89 46 -189q0 -158 -105 -276q-3 -5 -7 -8l-264 -277q-3 -7 -8 -12q-20 -20 -47 -8q-8 4 -14 10q-1 1 -4 5l-269 282q-4 4 -7 9q-104 118 -104 275q0 112 55.5 207.5t151 151t207.5 55.5q120 0 222 -65q8 -3 15 -9q72 -51 118 -127q12 -9 14 -24zM512.5 634
q-69.5 0 -118.5 -49t-49 -118.5t49 -118.5t118.5 -49t118.5 49t49 118.5t-49 118.5t-118.5 49z" />
    <glyph glyph-name="uniE62C" unicode="&#xe62c;" 
d="M886 -52h-747q-52 0 -88.5 36.5t-36.5 88.5v622q0 52 36.5 88.5t88.5 36.5h747q51 0 87.5 -36.5t36.5 -88.5v-622q0 -52 -36.5 -88.5t-87.5 -36.5zM77 529v-415q0 -104 103 -104h664q104 0 104 104v415h-872h1z" />
    <glyph glyph-name="uniE62D" unicode="&#xe62d;" 
d="M187 327q1 4 -0.5 6.5t1 5t2.5 4t3.5 3t4.5 2t5 1.5t5.5 1t6.5 1t7 1l516 -1l-132 140q-11 12 -11 18.5t11.5 19t27.5 12.5t27 -13l158 -167v0q1 0 1.5 -1t0.5 -2q5 -6 7 -11q2 -4 3 -9q1 -9 -3 -17v-1q-1 -4 -2 -5q-3 -8 -7 -12l-152 -167q-11 -12 -26.5 -12t-26.5 12
q-17 18 20 58l90 98l-494 1q-16 -3 -29 7t-14 27zM886 -62h-747q-52 0 -88.5 36.5t-36.5 87.5v166q0 9 6 15t15 6h21q8 0 14 -6t6 -15v-124q0 -104 104 -104h664q104 0 104 104v415q0 50 -28 76.5t-76 26.5q-27 9 -44 24.5t-20 26.5l-4 12q-18 62 -98 62h-332q-79 0 -98 -62
q0 -2 -1 -5t-5 -11t-10.5 -15.5t-20 -16.5t-31.5 -15q-47 0 -75.5 -26.5t-28.5 -76.5v-83q0 -9 -6 -15t-14 -6h-21q-9 0 -15 6t-6 15v124q0 52 36.5 88.5t88.5 36.5h41q0 51 36.5 87.5t88.5 36.5h415q51 0 87.5 -36.5t36.5 -87.5h42q51 0 87.5 -36.5t36.5 -88.5v-498
q0 -51 -36.5 -87.5t-87.5 -36.5z" />
    <glyph glyph-name="uniE62E" unicode="&#xe62e;" 
d="M886 -42h-747q-52 0 -88.5 36.5t-36.5 88.5v498q0 52 36.5 88t88.5 36h41q0 52 36.5 88.5t88.5 36.5h415q51 0 87.5 -36.5t36.5 -88.5h42q51 0 87.5 -36t36.5 -88v-498q0 -52 -36.5 -88.5t-87.5 -36.5zM828 368q-2 4 -7 11l-1 1q0 1 -1 2v0l-158 167q-11 12 -27 12
t-27.5 -12t-11.5 -19t11 -19l132 -139l-516 1q-2 0 -7 -1t-6.5 -1.5t-5.5 -1t-5 -1.5t-4.5 -2.5t-3.5 -2.5t-2.5 -3.5t-1 -5.5t0.5 -7q1 -16 14 -26t29 -7l494 -1l-90 -98q-37 -40 -20 -58q11 -12 26.5 -12t26.5 12l152 166q5 5 7 12q1 2 2 5q0 1 1 1q3 9 2 18q-1 5 -3 9z
" />
    <glyph glyph-name="uniE62F" unicode="&#xe62f;" 
d="M831 598q-2 -12 -10.5 -19.5t-20.5 -7.5q-23 0 -29 22h-4q-12 96 -85.5 161.5t-171.5 65.5q-108 0 -184 -76t-76 -183.5t76 -183.5t184 -76q67 0 124.5 32t92.5 86h1q2 12 10.5 19.5t20.5 7.5q13 0 22 -9t9 -22q0 -6 -3 -13l4 -1q-38 -68 -104.5 -111t-145.5 -50v-84h176
q13 0 22 -9.5t9 -22.5t-9 -22t-22 -9h-176v-176q0 -13 -9 -22t-22 -9t-22 9t-9 22v176h-177q-13 0 -22 9t-9 22t9 22.5t22 9.5h177v84q-122 13 -205 104.5t-83 215.5q0 88 43 162t117 117t161 43q119 0 208.5 -76.5t108.5 -192.5q2 -5 2 -11v-1v-1v-2z" />
    <glyph glyph-name="uniE630" unicode="&#xe630;" 
d="M541 240v-84h176q13 0 22 -9.5t9 -22.5t-9 -22t-22 -9h-176v-176q0 -13 -9 -22t-22 -9t-22 9t-9 22v176h-177q-13 0 -22 9t-9 22t9 22.5t22 9.5h177v84q-122 13 -205 104.5t-83 215.5q0 88 43 162t117 117t161.5 43t161.5 -43t117 -117t43 -162q0 -125 -84.5 -217
t-208.5 -103z" />
    <glyph glyph-name="uniE631" unicode="&#xe631;" 
d="M269 526.5q0 30.5 21 52t50.5 21.5t50.5 -21.5t21 -52t-21 -51.5t-50.5 -21t-50.5 21t-21 51.5zM615 526q0 30 21 51.5t50.5 21.5t50.5 -21.5t21 -51.5t-21 -51.5t-50.5 -21.5t-50.5 21.5t-21 51.5zM773 341q13 -7 14.5 -16.5t-5.5 -23.5q-40 -88 -111 -137.5t-159 -49.5
q-85 0 -157 51t-113 136q-9 19 16 32q14 7 29 2t22 -19q30 -64 85.5 -101t119.5 -37q67 0 123 39t86 105q7 14 21.5 19.5t28.5 -0.5zM1010 378q0 -13 -9 -22t-22 -9t-22 9t-9 22q0 1 1 4v1h-1v1q0 88 -34.5 169t-93 139t-139 92.5t-169.5 34.5t-169.5 -34.5t-139 -92.5
t-93 -139t-34.5 -169.5t34.5 -169t93 -139t139 -93t169.5 -34.5q113 0 210 54t156 146h5q1 12 9.5 20t20.5 8q11 0 19.5 -8t10.5 -19h8l-9 -15q-1 -4 -5 -9q-67 -109 -179.5 -174t-245.5 -65q-101 0 -193.5 39.5t-159 106t-106 159t-39.5 193.5t39.5 193t106 159t159 106.5
t193.5 39.5t193 -39.5t159 -106t106.5 -158.5t39.5 -193h-1q1 -6 1 -7z" />
    <glyph glyph-name="uniE632" unicode="&#xe632;" 
d="M512 -114q-101 0 -193.5 39.5t-159 106t-106 159t-39.5 193.5t39.5 193t106 159t159 106.5t193.5 39.5t193.5 -39.5t159 -106.5t106 -159t39.5 -193t-39.5 -193.5t-106 -159t-159 -106t-193.5 -39.5zM340.5 600q-29.5 0 -50.5 -21.5t-21 -52t21 -51.5t50.5 -21t50.5 21
t21 51.5t-21 52t-50.5 21.5zM686.5 599q-29.5 0 -50.5 -21.5t-21 -51.5t21 -51.5t50.5 -21.5t50.5 21.5t21 51.5t-21 51.5t-50.5 21.5zM773 341q-14 6 -28.5 0.5t-21.5 -19.5q-30 -66 -86 -104.5t-123 -38.5q-64 0 -119.5 36.5t-85.5 100.5q-7 14 -22 19t-29 -2
q-25 -13 -16 -32q41 -85 113.5 -136t156.5 -51q88 0 159 49.5t111 137.5q7 14 5.5 23.5t-14.5 16.5z" />
    <glyph glyph-name="uniE633" unicode="&#xe633;" 
d="M995 822l-440 -440l428 -431q12 -12 14.5 -27.5t-7 -24.5t-24.5 -7t-27 15l-428 431l-437 -437q-12 -13 -27.5 -15t-24.5 7t-7 24.5t15 27.5l437 437l-438 440q-12 13 -14 28t7 24.5t24 7t27 -14.5l438 -441l440 440q12 13 27.5 15t24.5 -7t7 -24.5t-15 -27.5z" />
    <glyph glyph-name="uniE634" unicode="&#xe634;" 
d="M699 175.5q-9 -9.5 -22 -9.5t-22 9l-154 154l-154 -154q-9 -9 -22 -9t-22 9.5t-9 22t9 21.5l154 154l-154 154q-9 10 -9 22.5t9 22t22 9.5t22 -10l154 -154l154 154q9 10 22 10t22 -9.5t9 -22t-9 -22.5l-154 -154l154 -154q9 -9 9 -21.5t-9 -22zM1009 378q0 -13 -9 -22
t-22 -9t-22.5 9t-9.5 22q0 1 1 4q0 1 1 2h-2q0 89 -34.5 169.5t-92.5 139t-139 93t-169.5 34.5t-169 -34.5t-139 -93t-93 -139t-34.5 -169.5t34.5 -169.5t93 -138.5t139 -92.5t169.5 -34.5q113 0 210 54t156 146h4q2 11 10.5 19t20.5 8q11 0 19.5 -7.5t10.5 -18.5h8
q-1 -1 -9 -16q-2 -4 -5 -8q-67 -110 -179.5 -174.5t-245.5 -64.5q-101 0 -193.5 39t-159 106t-106 159t-39.5 193t39.5 193.5t106 159t159 106t193.5 39.5t193 -39.5t158.5 -106t106 -158.5t39.5 -193q1 -6 1 -7z" />
    <glyph glyph-name="uniE635" unicode="&#xe635;" 
d="M512.5 -114q-101.5 0 -193.5 39.5t-159 106t-106 159t-39 193.5t39 193t106 159t159 106.5t193.5 39.5t193.5 -39.5t158.5 -106.5t106 -159t39.5 -193t-39.5 -193.5t-106 -159t-158.5 -106t-193.5 -39.5zM700 527q9 9 9 22t-9 22t-22 9t-22 -9l-154 -154l-154 154
q-9 9 -22 9t-22 -9t-9 -22t9 -22l154 -154l-154 -154q-9 -9 -9 -22t9 -22t22 -9t22 9l154 154l154 -154q9 -9 22 -9t22 9t9 22t-9 22l-154 154z" />
    <glyph glyph-name="uniE636" unicode="&#xe636;" 
d="M834 167q0 -116 -87 -198.5t-210 -82.5h-49q-123 0 -210 82.5t-87 198.5q0 115 85.5 197.5t206.5 83.5q-2 6 -2 8v395q0 13 9 22t22 9t22 -9t9 -22v-73h115q12 0 21.5 -9t9.5 -22t-9.5 -22t-21.5 -9h-115v-260q0 -2 -1 -8q121 -1 206.5 -83.5t85.5 -197.5z" />
    <glyph glyph-name="uniE637" unicode="&#xe637;" 
d="M990 488l-457 269h-41l-457 -269h-21v58l146 83v128q0 21 20 21h42q21 0 21 -21v-80l249 143h41l477 -273v-59h-20zM492 695h41l436 -249v-394q0 -46 -35 -75t-86 -29h-675q-49 0 -83.5 33.5t-34.5 80.5l1 384zM215 10h214v-62h166v62h212q51 0 75.5 19t24.5 64v312
l-374 228h-41l-374 -228v-301q0 -94 97 -94zM658 10h-63v312h-166v-312h-62v374h291v-374z" />
    <glyph glyph-name="uniE638" unicode="&#xe638;" 
d="M1010 488h-20l-457 269h-41l-457 -269h-21v58l146 83v128q0 21 20 21h42q21 0 21 -21v-80l249 143h41l477 -273v-59zM492 695h41l436 -249v-394q0 -46 -35 -75t-86 -29h-675q-49 0 -83.5 33.5t-34.5 80.5l1 384zM367 31h291v353h-291v-353z" />
    <glyph glyph-name="uniE639" unicode="&#xe639;" 
d="M979 674h-72v-601q0 -52 -36.5 -88.5t-88.5 -36.5h-539q-52 0 -88.5 36.5t-36.5 88.5v601h-73q-13 0 -22 9.5t-9 21.5q0 13 9 22.5t22 9.5h405v16q0 25 0.5 34.5t7 19t18.5 11.5t36 2h42q24 0 36.5 -2t18.5 -11.5t6.5 -19t0.5 -34.5v-16h363q13 0 22 -9.5t9 -22.5
q0 -12 -9 -21.5t-22 -9.5zM844 674h-664v-560q0 -104 104 -104h457q103 0 103 104v560zM647 52q-13 0 -22 9t-9 22v477q0 13 9 22t22 9t22 -9t9 -22v-477q0 -13 -9 -22t-22 -9zM377 52q-12 0 -21.5 9t-9.5 22v477q0 13 9.5 22t21.5 9q13 0 22.5 -9t9.5 -22v-477
q0 -13 -9.5 -22t-22.5 -9z" />
    <glyph glyph-name="uniE63A" unicode="&#xe63a;" 
d="M979 674h-72v-601q0 -52 -36.5 -88.5t-88.5 -36.5h-539q-52 0 -88.5 36.5t-36.5 88.5v601h-73q-13 0 -22 9.5t-9 21.5q0 13 9 22.5t22 9.5h405v16q0 25 0.5 34.5t7 19t18.5 11.5t36 2h42q24 0 36.5 -2t18.5 -11.5t6.5 -19t0.5 -34.5v-16h363q13 0 22 -9.5t9 -22.5
q0 -12 -9 -21.5t-22 -9.5zM409 560q0 13 -9.5 22t-22.5 9q-12 0 -21.5 -9t-9.5 -22v-477q0 -13 9.5 -22t21.5 -9q13 0 22.5 9t9.5 22v477zM678 560q0 13 -9 22t-22 9t-22 -9t-9 -22v-477q0 -13 9 -22t22 -9t22 9t9 22v477z" />
    <glyph glyph-name="uniE63B" unicode="&#xe63b;" 
d="M14 695q0 52 36.5 88.5t88.5 36.5h207q52 0 88.5 -36.5t36.5 -88.5v-270h-332q-52 0 -88.5 36.5t-36.5 88.5v145zM554 695q0 52 36.5 88.5t87.5 36.5h208q51 0 87.5 -36.5t36.5 -88.5v-145q0 -52 -36.5 -88.5t-87.5 -36.5h-332v270zM14 218q0 51 36.5 87.5t88.5 36.5h332
v-270q0 -51 -36.5 -87.5t-88.5 -36.5h-207q-52 0 -88.5 36.5t-36.5 87.5v146zM554 342h332q51 0 87.5 -36.5t36.5 -87.5v-145q0 -52 -36.5 -88.5t-87.5 -36.5h-208q-51 0 -87.5 36.5t-36.5 88.5v269zM77 633q0 51 36 87.5t88 36.5h83q52 0 88.5 -36.5t36.5 -87.5v-145h-208
q-52 0 -88 36t-36 88v21zM948 633q0 51 -36.5 87.5t-87.5 36.5h-83q-52 0 -88.5 -36.5t-36.5 -87.5v-145h208q51 0 87.5 36t36.5 88v21zM77 135q0 -52 36 -88.5t88 -36.5h83q52 0 88.5 36.5t36.5 88.5v145h-208q-52 0 -88 -36.5t-36 -87.5v-21zM948 135q0 -52 -36.5 -88.5
t-87.5 -36.5h-83q-52 0 -88.5 36.5t-36.5 88.5v145h208q51 0 87.5 -36.5t36.5 -87.5v-21z" />
    <glyph glyph-name="uniE63C" unicode="&#xe63c;" 
d="M14 695q0 52 36.5 88.5t88.5 36.5h207q52 0 88.5 -36.5t36.5 -88.5v-270h-332q-52 0 -88.5 36.5t-36.5 88.5v145zM554 695q0 52 36.5 88.5t87.5 36.5h208q51 0 87.5 -36.5t36.5 -88.5v-145q0 -52 -36.5 -88.5t-87.5 -36.5h-332v270zM14 218q0 51 36.5 87.5t88.5 36.5h332
v-270q0 -51 -36.5 -87.5t-88.5 -36.5h-207q-52 0 -88.5 36.5t-36.5 87.5v146zM554 342h332q51 0 87.5 -36.5t36.5 -87.5v-145q0 -52 -36.5 -88.5t-87.5 -36.5h-208q-51 0 -87.5 36.5t-36.5 88.5v269z" />
    <glyph glyph-name="uniE63D" unicode="&#xe63d;" 
d="M1001 112q-4 -5 -10 -7.5t-11.5 -2t-15.5 1.5t-16 1h-21h-145q0 17 -3 38l168 3h1q3 0 6 -1.5t4 -2.5l2 -1q3 9 -4 38q-11 42 -26.5 74t-39.5 61t-61 44.5t-83 15.5q-44 0 -81 -14q-29 23 -60 31q39 25 92 31q-39 12 -68 42t-40 70q-16 -51 -54 -90.5t-88 -56.5
q51 -10 93 -31.5t70.5 -49.5t51.5 -66.5t37.5 -76.5t26.5 -86q20 -75 -4 -109q-20 -29 -65 -29q0 -2 -20 0l-530 -2q-51 -3 -77 31q-11 14 -14 37.5t-1.5 36t2.5 16.5q12 53 24.5 93.5t34 84t49.5 73t70 52t95 30.5q-66 26 -108.5 83.5t-42.5 128.5q0 93 71 160.5t165 67.5
q81 0 143 -52.5t77 -131.5q19 45 60 73t91 28q68 0 116.5 -49t48.5 -118q0 -57 -34 -101.5t-87 -59.5q50 -7 87.5 -27.5t61.5 -53t38 -66.5t27 -81q14 -55 -3 -80zM84 44q-2 -6 -1.5 -19t2.5 -17q7 -7 12 -7h540h20q5 0 7 1.5t2 3.5l1 1q4 13 -7 53q-14 56 -36.5 101.5
t-56.5 86t-85.5 63t-114.5 22.5q-54 0 -98 -16.5t-73 -42.5t-52 -65t-36.5 -78t-23.5 -87zM367 769q-65 0 -115.5 -50t-50.5 -116t50.5 -116t115.5 -50t114.5 50t49.5 116t-49.5 116t-114.5 50zM861 581.5q0 48.5 -33.5 82.5t-81 34t-81 -34t-33.5 -82.5t33.5 -83t81 -34.5
t81 34.5t33.5 83zM389 256v-21h-139v21h62q-4 8 -9 20q-4 6 -5 10l26 6q1 -4 4 -12q4 -4 10 -21l-8 -3h59zM262 221l19 10q3 -4 8 -10q12 -16 18 -26l-21 -11q-5 7 -16 24q-5 8 -8 13zM353 231l22 -8l-22 -40h42v-22h-153v22h85q13 25 26 48zM380 25h-25v18h-71v-19h-25v109
h121v-108zM355 112h-71v-50h71v50zM506 250l-28 -75q34 -33 33 -70q0 -45 -38 -48q-7 -1 -27 -1q-2 4 -3 13q-2 9 -3 13q12 -1 26 -1q22 -1 21 26q0 32 -34 64l28 80h-49v-229h-23v253h97v-25z" />
    <glyph glyph-name="uniE63E" unicode="&#xe63e;" 
d="M1001 112q-4 -5 -10 -7.5t-11.5 -2t-15.5 1.5t-16 1h-21h-145q0 94 -53 180.5t-124 105.5q39 25 92 31q-39 12 -68 42t-40 70q-16 -51 -54 -90.5t-88 -56.5q51 -10 93 -31.5t70.5 -49.5t51.5 -66.5t37.5 -76.5t26.5 -86q20 -75 -4 -109q-20 -29 -65 -29q0 -2 -20 0
l-530 -2q-51 -3 -77 31q-11 14 -14 37.5t-1.5 36t2.5 16.5q12 53 24.5 93.5t34 84t49.5 73t70 52t95 30.5q-66 26 -109 83.5t-43 128.5q0 93 71.5 160.5t165.5 67.5q81 0 143 -52.5t77 -131.5q19 45 60 73t91 28q68 0 116.5 -49t48.5 -118q0 -57 -34 -101.5t-87 -59.5
q50 -7 87.5 -27.5t61.5 -53t38 -66.5t27 -81q14 -55 -3 -80zM259 24h25v19h71v-18h25v108h-121v-109zM389 256h-59l8 3q-6 17 -10 21q-3 8 -4 12l-26 -6q1 -3 5 -10q5 -12 9 -20h-62v-21h139v21zM262 221q3 -5 8 -13q10 -14 16 -24l21 11q-7 11 -18 26q-5 7 -8 10zM395 183
h-42l22 40l-22 8q-12 -22 -26 -48h-85v-22h153v22zM409 22h23v229h49l-28 -80q34 -32 34 -64q1 -27 -21 -26q-14 0 -26 1q1 -3 3 -13q1 -9 3 -13q20 0 27 1q38 3 38 48q1 37 -33 70l28 75v25h-97v-253zM284 112h71v-50h-71v50z" />
    <glyph glyph-name="uniE63F" unicode="&#xe63f;" 
d="M886 -52h-747q-52 0 -88.5 36.5t-36.5 88.5v269q0 9 6 15t15 6h21q8 0 14 -6t6 -15v-228q0 -104 104 -104h664q104 0 104 104v415h-913q-9 0 -15 6t-6 15v145q0 52 36.5 88.5t88.5 36.5h747q51 0 87.5 -36.5t36.5 -88.5v-622q0 -52 -36.5 -88.5t-87.5 -36.5zM844 757
h-664q-103 0 -103 -103v-63h871v63q0 103 -104 103z" />
    <glyph glyph-name="uniE640" unicode="&#xe640;" 
d="M971 114q-17 -26 -39.5 -48.5t-55.5 -43.5t-80 -32.5t-101 -10.5q-52 1 -107 14q-20 5 -30 20t-4.5 32t25 22t37.5 -5q54 -29 119 -13q-37 28 -59.5 77t-22.5 107q0 87 47 149t114 62q35 0 71 -18q-35 140 -133 230.5t-219 90.5q-116 0 -207.5 -85t-129.5 -219q9 1 14 1
q67 0 114.5 -62t47.5 -149.5t-47.5 -149t-114.5 -61.5q-70 0 -133 63.5t-63 147.5q0 58 32 108t80 78q35 170 150 280t263 110q105 0 196.5 -58t151 -159.5t73.5 -225.5q50 -61 50 -133q0 -64 -39 -119z" />
    <glyph glyph-name="uniE641" unicode="&#xe641;" 
d="M990 348l-476 -454q-9 -9 -21.5 -8.5t-21.5 9.5t-9 22t9 21l466 444l-467 447q-9 9 -9.5 21.5t8.5 22t22 9.5t22 -9l477 -457q16 -14 7 -34q9 -20 -7 -34zM561 382q9 -20 -6 -34l-476 -454q-10 -9 -22.5 -8.5t-21.5 9.5t-9 22t10 21l465 444l-467 447q-9 9 -9 21.5t9 22
t21.5 9.5t22.5 -9l477 -457q15 -14 6 -34z" />
    <glyph glyph-name="uniE642" unicode="&#xe642;" 
d="M990 829l-466 -447l465 -444q9 -8 9.5 -21t-8.5 -22t-22 -9t-22 8l-476 454q-15 14 -7 34q-8 20 7 34l477 457q9 9 22 9t22 -9.5t8.5 -22t-9.5 -21.5zM88 382l465 -444q9 -8 9.5 -21t-8.5 -22t-22 -9t-22 8l-476 454q-15 14 -7 34q-8 20 7 34l477 457q10 9 22.5 9
t21.5 -9.5t9 -22t-10 -21.5z" />
    <glyph glyph-name="uniE643" unicode="&#xe643;" 
d="M979 737h-425v-706h135q13 0 22 -9t9 -22t-9 -22t-22 -9h-312q-12 0 -21.5 9t-9.5 22t9.5 22t21.5 9h115v706h-447q-12 0 -21.5 9t-9.5 22t9.5 22t21.5 9h934q13 0 22 -9t9 -22t-9 -22t-22 -9z" />
    <glyph glyph-name="uniE644" unicode="&#xe644;" 
d="M886 -52h-747q-52 0 -88.5 36.5t-36.5 88.5v601q0 52 36.5 88.5t88.5 36.5h41v-62h-21q-34 0 -58.5 -24.5t-24.5 -58.5v-561q0 -34 24.5 -58.5t58.5 -24.5h706q34 0 58.5 24.5t24.5 58.5v561q0 37 -15 60t-47 23h-42v62h42q51 0 87.5 -36.5t36.5 -88.5v-601
q0 -52 -36.5 -88.5t-87.5 -36.5zM803 363h-83q-17 0 -29.5 12t-12.5 30v83q0 17 12.5 29t29.5 12h83q17 0 29 -12t12 -29v-83q0 -18 -12 -30t-29 -12zM780 695h-79q-9 0 -16 6.5t-7 15.5v80q0 9 9 16t19 7h74q10 0 16.5 -7t6.5 -16v-80q0 -9 -6.5 -15.5t-16.5 -6.5zM471 259
h83q17 0 29 -12t12 -29v-83q0 -17 -12 -29.5t-29 -12.5h-83q-17 0 -29.5 12.5t-12.5 29.5v83q0 17 12.5 29t29.5 12zM429 488q0 17 12.5 29t29.5 12h83q17 0 29 -12t12 -29v-83q0 -18 -12 -30t-29 -12h-83q-17 0 -29.5 12t-12.5 30v83zM388 799h249v-62h-249v62zM324 695
h-80q-9 0 -15.5 6.5t-6.5 15.5v80q0 9 9 16t19 7h74q9 0 15.5 -7t6.5 -16v-80q0 -9 -6.5 -15.5t-15.5 -6.5zM222 259h83q17 0 29 -12t12 -29v-83q0 -17 -12 -29.5t-29 -12.5h-83q-17 0 -29.5 12.5t-12.5 29.5v83q0 17 12.5 29t29.5 12zM346 488v-83q0 -18 -12 -30t-29 -12
h-83q-17 0 -29.5 12t-12.5 30v83q0 17 12.5 29t29.5 12h83q17 0 29 -12t12 -29z" />
    <glyph glyph-name="uniE645" unicode="&#xe645;" 
d="M886 -52h-747q-52 0 -88.5 36.5t-36.5 88.5v601q0 52 36.5 88.5t88.5 36.5h41v-104q0 -17 12.5 -29t29.5 -12h124q17 0 29.5 12t12.5 29v104h249v-104q0 -17 12 -29t29 -12h125q17 0 29 12t12 29v104h42q51 0 87.5 -36.5t36.5 -88.5v-601q0 -52 -36.5 -88.5t-87.5 -36.5z
M346 488q0 17 -12 29t-29 12h-83q-17 0 -29.5 -12t-12.5 -29v-83q0 -18 12.5 -30t29.5 -12h83q17 0 29 12t12 30v83zM346 218q0 17 -12 29t-29 12h-83q-17 0 -29.5 -12t-12.5 -29v-83q0 -17 12.5 -29.5t29.5 -12.5h83q17 0 29 12.5t12 29.5v83zM595 488q0 17 -12 29t-29 12
h-83q-17 0 -29.5 -12t-12.5 -29v-83q0 -18 12.5 -30t29.5 -12h83q17 0 29 12t12 30v83zM595 218q0 17 -12 29t-29 12h-83q-17 0 -29.5 -12t-12.5 -29v-83q0 -17 12.5 -29.5t29.5 -12.5h83q17 0 29 12.5t12 29.5v83zM844 488q0 17 -12 29t-29 12h-83q-17 0 -29.5 -12
t-12.5 -29v-83q0 -18 12.5 -30t29.5 -12h83q17 0 29 12t12 30v83zM780 695h-79q-9 0 -15.5 6.5t-6.5 15.5v80q0 9 8.5 16t18.5 7h74q10 0 16.5 -7t6.5 -16v-80q0 -9 -6.5 -15.5t-16.5 -6.5zM324 695h-80q-9 0 -15.5 6.5t-6.5 15.5v80q0 9 9 16t19 7h74q9 0 15.5 -7t6.5 -16
v-80q0 -9 -6.5 -15.5t-15.5 -6.5z" />
    <glyph glyph-name="uniE646" unicode="&#xe646;" 
d="M979 83h-135v-52q0 -13 -9 -22t-22 -9t-22 9t-9 22v52h-571q-12 0 -21.5 9t-9.5 22v508h-135q-13 0 -22 9.5t-9 22t9 22t22 9.5h135v52q0 12 9.5 21.5t22 9.5t22 -9.5t9.5 -21.5v-52h570q13 0 22 -9.5t9 -21.5v-509h135q13 0 22 -9t9 -22t-9 -22t-22 -9zM782 622h-539
v-477h539v477z" />
    <glyph glyph-name="uniE647" unicode="&#xe647;" 
d="M886 -52h-747q-52 0 -88.5 36.5t-36.5 88.5v601q0 52 36.5 88.5t88.5 36.5h41v-62h-21q-34 0 -58.5 -24.5t-24.5 -58.5v-561q0 -34 24.5 -58.5t58.5 -24.5h706q34 0 58.5 24.5t24.5 58.5v561q0 37 -15 60t-47 23h-42v62h42q51 0 87.5 -36.5t36.5 -88.5v-601
q0 -52 -36.5 -88.5t-87.5 -36.5zM406 150l-2 -2v-1q-12 -12 -28 -12q-17 0 -29 12q-1 1 -2 3t-1 3l-153 161q-11 12 -11 29.5t11 29.5t27.5 12t27.5 -12l134 -142l398 307q11 12 27 12t27.5 -12t11.5 -29t-11 -29zM780 695h-79q-9 0 -15.5 6.5t-6.5 15.5v80q0 9 8.5 16
t18.5 7h74q10 0 16.5 -7t6.5 -16v-80q0 -9 -6.5 -15.5t-16.5 -6.5zM388 799h249v-62h-249v62zM324 695h-80q-9 0 -15.5 6.5t-6.5 15.5v80q0 9 9 16t19 7h74q9 0 15.5 -7t6.5 -16v-80q0 -9 -6.5 -15.5t-15.5 -6.5z" />
    <glyph glyph-name="uniE648" unicode="&#xe648;" 
d="M999 624l-455 -331q-1 0 -2 -1v-1q-13 -13 -30 -12q-18 -1 -31 12q-1 1 -2 2.5t-1 2.5l-163 162q-12 12 -12 29.5t12 29.5t29.5 12t29.5 -12l142 -142l424 308q12 12 29.5 12t29.5 -12t12 -29.5t-12 -29.5zM366 135q-8 0 -14 6t-6 15v20q0 9 6 15t14 6h291q9 0 15 -6
t6 -15v-20q0 -9 -6 -15t-15 -6h-291zM845 756q-1 0 -7 1h-679q-33 0 -58 -33.5t-25 -69.5v-561q0 -34 24 -58.5t59 -24.5h705q35 0 59 24.5t24 58.5v372v1v1q0 13 9 22t22 9t22 -9t9 -22h1v-395q0 -51 -36.5 -87.5t-88.5 -36.5h-747q-51 0 -87.5 36.5t-36.5 87.5v623
q0 52 36.5 88.5t87.5 36.5h706v-2h1q12 0 21.5 -9t9.5 -22t-9.5 -22t-21.5 -9z" />
    <glyph glyph-name="uniE649" unicode="&#xe649;" 
d="M1006 671q-3 7 -7 12q-12 12 -29.5 12t-29.5 -12l-424 -308l-142 142q-13 12 -30 12t-29 -12t-12 -29.5t12 -29.5l163 -162q0 -1 1 -2.5t2 -2.5q6 -6 13 -9h1l1 -1q5 -2 13 -2h1h2h1h2q7 0 13 2v1h1q8 3 13 9v1q1 1 2 1l455 331q4 5 7 11q3 5 4 12v-574
q0 -52 -36.5 -88.5t-88.5 -36.5h-747q-51 0 -87.5 36.5t-36.5 88.5v622q0 52 36.5 88.5t87.5 36.5h747q52 0 88.5 -36.5t36.5 -88.5v-35q-1 7 -4 11zM346 156q0 -9 6 -15t14 -6h291q9 0 15 6t6 15v20q0 9 -6 15t-15 6h-291q-8 0 -14 -6t-6 -15v-20z" />
    <glyph glyph-name="uniE64A" unicode="&#xe64a;" 
d="M1012 676v-602q0 -51 -36.5 -87.5t-87.5 -36.5h-747q-52 0 -88.5 36.5t-36.5 87.5v208q0 9 6 15t15 6h21q8 0 14 -6t6 -15v-166q0 -104 104 -104h664q104 0 104 104v483l-210 -259q5 -3 9 -7l128 -128q11 -11 11 -17.5t-11.5 -18t-28 -11.5t-28.5 11l-121 121l-39 -50
q-5 -4 -15 -11t-47.5 -18.5t-83.5 -11.5q-45 0 -81.5 10.5t-49.5 20.5l-14 10l-43 54l-129 -128q-12 -12 -29 -12t-29.5 12t-12.5 19t13 19l132 132q6 6 12 11l-205 254v-111q0 -9 -6 -15t-14 -6h-21q-9 0 -15 6t-6 15v243q4 3 7 4q13 37 45 61t73 24h747q41 0 73 -24
t45 -62q2 0 6 -3v-57zM846 759h-664q-76 0 -96 -56l325 -399q4 -5 12.5 -12t35.5 -19t55 -12t53.5 10t37.5 21l12 10l326 400q-20 57 -97 57z" />
    <glyph glyph-name="uniE64B" unicode="&#xe64b;" 
d="M888 -50h-747q-52 0 -88.5 36.5t-36.5 87.5v559l251 -280l-128 -128q-17 -17 -25.5 -34t4.5 -25q1 0 12 -3.5t17 -4.5t15 0.5t15 7.5l132 132q1 2 4 5l56 -63q5 -4 15 -11t47.5 -18.5t82.5 -11.5q46 0 82.5 10.5t49.5 20.5l14 10l52 58l1 -1l128 -128q11 -11 28 -11
t28.5 11.5t11.5 18t-12 17.5l-127 128q-7 7 -18 10l260 288v-557q0 -51 -36.5 -87.5t-87.5 -36.5zM617 302q-5 -5 -13.5 -11.5t-35 -18t-54.5 -11.5t-53.5 11t-37.5 21l-12 11l-387 423l-3 3q11 40 44 66t76 26h747q43 0 76 -26.5t44 -66.5l-1 -1l-2 -2z" />
    <glyph glyph-name="uniE64C" unicode="&#xe64c;" 
d="M1010 653v-580q0 -52 -36.5 -88.5t-87.5 -36.5h-747q-52 0 -88.5 36.5t-36.5 88.5v83q0 8 6 14t15 6h21q8 0 14 -6t6 -14v-42q0 -104 104 -104h664q104 0 104 104v431l-407 -254q-12 -13 -29.5 -13t-29.5 13q-1 0 -5 6l-401 250v-184q0 -9 -6 -15t-14 -6h-21q-9 0 -15 6
t-6 15v332q0 52 36.5 88.5t88.5 36.5h747q51 0 87.5 -36.5t36.5 -88.5v-42zM948 654q0 103 -104 103h-664q-103 0 -103 -103v-33l436 -273l435 272v34z" />
    <glyph glyph-name="uniE64D" unicode="&#xe64d;" 
d="M886 -52h-747q-52 0 -88.5 36.5t-36.5 88.5v558l252 -280l-129 -128q-17 -17 -25.5 -34t4.5 -25q1 0 12 -3.5t17 -4.5t15 0.5t15 7.5l132 132q2 2 4 5l56 -62q5 -5 15 -12t47.5 -18.5t82.5 -11.5q46 0 82.5 10.5t49.5 20.5l14 11l52 57l1 -1l128 -128q11 -11 28 -11
t28.5 11.5t11.5 18t-12 17.5l-127 128q-8 7 -18 10l260 288v-557q0 -51 -36.5 -87.5t-87.5 -36.5zM615 300q-5 -5 -13.5 -11.5t-35 -18t-54.5 -11.5t-53.5 11t-37.5 21l-12 11l-386 423q-1 0 -4 3q11 40 44 66t76 26h747q43 0 76 -26.5t44 -66.5q0 -1 -1 -1.5t-2 -1.5z" />
    <glyph glyph-name="uniE64E" unicode="&#xe64e;" 
d="M894 270q-48 0 -82 33.5t-34 80.5t34 80.5t82 33.5t82 -33.5t34 -80.5t-34 -80.5t-82 -33.5zM512 270q-48 0 -82 33.5t-34 80.5t34 80.5t82 33.5t82.5 -33.5t34.5 -80.5t-34.5 -80.5t-82.5 -33.5zM130.5 270q-48.5 0 -82.5 33.5t-34 80.5t34 80.5t82.5 33.5t82.5 -33.5
t34 -80.5t-34 -80.5t-82.5 -33.5z" />
    <glyph glyph-name="uniE64F" unicode="&#xe64f;" 
d="M939 -114h-836q-13 0 -24 8h-1h-1q-11 0 -20 7q-13 11 -11 28l28 274q1 9 7 17l400 481q9 10 22 11t23 -7l235 -200q10 -9 11 -22t-7 -23l-399 -480q-7 -8 -16 -10l-77 -22h665h16q4 0 12 -2t10.5 -6.5t2.5 -12.5q0 -16 -11.5 -28.5t-28.5 -12.5zM696 477l-187 159
l-373 -450l-22 -217l209 59zM833 541l-284 240l45 54q40 47 100 47q45 0 80 -29l91 -77q40 -34 44 -87t-30 -94zM824 727l-91 77q-19 16 -46 13t-44 -23l-5 -5l187 -158l5 5q18 21 16 48t-22 43z" />
    <glyph glyph-name="uniE650" unicode="&#xe650;" 
d="M939 -114h-836q-12 0 -23 8h-1h-2q-11 0 -20 7q-13 11 -11 28l28 274q1 9 7 17l400 481q9 10 22 11t23 -7l235 -200q10 -9 11 -22t-7 -23l-399 -480q-7 -8 -16 -10l-76 -22h664h16q4 0 12 -2t10.5 -6.5t2.5 -12.5q0 -16 -11.5 -28.5t-27.5 -12.5h-1zM833 541l-284 240
l45 54q39 47 100 47q45 0 80 -29l91 -77q40 -34 44 -87t-30 -94z" />
    <glyph glyph-name="uniE651" unicode="&#xe651;" 
d="M1010 73q0 -52 -36.5 -88.5t-87.5 -36.5h-747q-52 0 -88.5 36.5t-36.5 88.5v622q0 52 36.5 88.5t88.5 36.5h705q13 0 22 -9.5t9 -22t-9 -22t-22 -9.5h-685q-32 0 -57.5 -33.5t-25.5 -69.5v-561q0 -34 24.5 -58.5t58.5 -24.5h706q34 0 58.5 24.5t24.5 58.5v374v1
q0 13 9 22t22 9t22 -9t9 -22v-1v-395v1zM918 535l-370 -327q-2 -2 -6 -2h-6l-90 -9q-4 1 -7 5h-1q-4 1 -7 5q-4 5 -2 11l33 96q2 4 4 6l371 327q4 3 8.5 2t7.5 -5l68 -93q7 -9 -3 -16zM970 579l-82 111l21 16q18 14 40 8q16 -4 26 -17l26 -36q12 -16 9 -35.5t-19 -31.5z" />
    <glyph glyph-name="uniE652" unicode="&#xe652;" 
d="M831 -20q-61 -23 -136 -22q-52 1 -107 14q-20 5 -30 20.5t-5 31.5q6 16 25 20.5t38 -2.5q50 -18 89 -19q-47 54 -47 174q0 218 155 218q39 0 73 -14q-35 142 -133 233.5t-220 91.5q-118 0 -210.5 -87t-128.5 -225q11 1 17 1q156 0 156 -218t-156 -218q-88 0 -142.5 63
t-54.5 155q0 67 29.5 120t81.5 79q35 170 150 281.5t264 111.5q105 0 196.5 -58.5t150.5 -159.5t74 -224q50 -61 50 -150q0 -87 -49 -148.5t-130 -68.5zM77 197q0 -67 36 -111t98 -44q25 0 43 8t27.5 21t15 35t7 41.5t1.5 49.5t-1.5 50t-7 42t-15 34.5t-27.5 21t-43 8.5
q-62 0 -98 -44.5t-36 -111.5zM813 353q-25 0 -42.5 -8.5t-27.5 -21t-15 -34.5t-6.5 -42t-1.5 -50t1.5 -49.5t6.5 -41.5t15 -35t27.5 -21t42.5 -8q63 0 99 44t36 111t-36 111.5t-99 44.5z" />
    <glyph glyph-name="uniE653" unicode="&#xe653;" 
d="M927 -114h-830q-34 0 -58.5 24t-24.5 59v498q0 33 23 57t57 25l834 1q33 0 57 -23t25 -57v-502q0 -34 -24 -58t-59 -24zM812 593q-4 -3 -9 -2q-13 -4 -21 6.5t-14.5 30.5t-14.5 44.5t-25 50.5t-42 47.5t-70 35t-104 14.5q-53 0 -95.5 -15t-68 -39t-44 -52.5t-26 -57.5
t-11.5 -52.5t-4 -38.5v-15h-62q0 7 0.5 19t6 46.5t16 65.5t34 69.5t55 66t83.5 46.5t116 19q63 0 115.5 -16.5t86.5 -41.5t58 -57.5t35.5 -62t15.5 -56.5q14 -10 14 -26q0 -11 -7 -19t-18 -10z" />
    <glyph glyph-name="uniE654" unicode="&#xe654;" 
d="M1010 566l-84 -435q-8 -38 -41 -59.5t-71 -13.5l-200 64h-1h-2v1q-23 6 -32 21h-1l-27 35l-47 118l1 1q-8 10 -5 22q3 14 16 19v1l89 66l142 126q9 8 22 7.5t22 -10.5t8 -23t-11 -22l-136 -121l-52 -48l-19 -18l57 -116l189 -61q13 -3 24 4t14 20l82 443q3 11 -6.5 19
t-18.5 9l-190 67q-69 -78 -77 -88q-11 -17 -31 -17q-16 0 -27.5 11.5t-11.5 27.5q0 14 10 25q48 70 73 94l5 5q3 3 14 7.5t22 3.5l8 -2v0l209 -70q39 -8 65 -42t18 -71h1zM385 207l151 -105q2 -12 -10 -14l-318 -69q-38 -9 -70.5 12.5t-41.5 59.5l-83 433q0 60 12.5 83.5
t49.5 31.5l274 61h1l3 1l1 -1q14 1 17 -18l-43 -170l-7 -35q4 -22 21 -31l70 -30q2 -1 6 -4t9.5 -13.5t3.5 -23.5q-29 -52 -60 -110q-13 -32 3 -49zM323 266q17 44 26 63l6 26q1 5 -0.5 11t-3.5 9l-2 3q-3 3 -6 5q-8 4 -17 6q-2 0 -3 1q-22 7 -28 20l-30 -142l-23 -87
q-8 -20 -29 -20q-13 0 -22 9t-9 22q0 4 1 8h-1l68 303l22 116l-176 -32q-12 -3 -17.5 -15.5t-2.5 -26.5l82 -440q2 -13 13 -20t24 -5l202 44l-77 62q-6 4 -8.5 11t-2.5 14t1 15t3.5 15t4.5 12.5t4 8.5z" />
    <glyph glyph-name="uniE655" unicode="&#xe655;" 
d="M1010 566l-84 -435q-8 -38 -41 -59.5t-71 -13.5l-200 64h-1h-2v1q-23 6 -32 21h-1l-27 35l-47 118l1 1q-8 10 -5 22q3 14 16 19v1l89 66l100 88l-111 93q0 1 1 3q-10 12 -10 26t10 25q48 70 73 94l5 5q3 3 14 7.5t22 3.5l8 -2v0l209 -70q39 -8 65 -42t18 -71h1zM385 207
l151 -105q2 -12 -10 -14l-318 -69q-38 -9 -70.5 12.5t-41.5 59.5l-83 433q0 60 12.5 83.5t49.5 31.5l274 61h1l3 1l1 -1q14 1 17 -18l-43 -170l-7 -35q4 -22 21 -31l70 -30q2 -1 6 -4t9.5 -13.5t3.5 -23.5q-20 -36 -60 -110q-13 -32 3 -49z" />
    <glyph glyph-name="uniE656" unicode="&#xe656;" 
d="M660 28q-17 -49 -57 -80t-90.5 -31t-90.5 31t-57 80h-1h-2q-98 14 -174.5 42.5t-125 75.5t-48.5 105q0 68 61.5 118.5t164.5 79.5q19 9 33 23q0 1 1 1q13 13 31 13q17 0 29 -11.5t12 -27.5q0 -8 -4 -16v-2q-9 -17 -30 -32.5t-49 -23.5q-84 -22 -135 -58t-51 -66
q0 -23 32.5 -51.5t87 -54t139 -43t176.5 -17.5t176.5 17.5t139.5 43t87.5 54t32.5 51.5q0 31 -50 67t-137 57q-7 2 -41 21q-24 9 -34 15t-17 20l1 1q-2 7 -2 13q0 17 12.5 29t29.5 12q19 0 31 -13q16 -14 34 -20h4q106 -29 168.5 -80t62.5 -120q0 -59 -48.5 -106t-126 -75.5
t-175.5 -41.5zM697 579v-2q-1 -14 -13 -26t-26 -12q-5 0 -8 1t-5 3.5t-3 4t-2.5 6t-2.5 6.5q-16 89 -54 157.5t-71 68.5q-30 0 -68 -69.5t-55 -152.5l3 9l-4 -13q-2 -3 -5 -8t-4 -7t-4 -4t-8 -2q-14 0 -25 12.5t-13 27.5q-1 3 -1 6q21 120 70.5 193t113.5 73q65 0 115 -74
t70 -197v0v-1z" />
    <glyph glyph-name="uniE657" unicode="&#xe657;" 
d="M660 28q-17 -49 -57 -80t-90.5 -31t-90.5 31t-57 80h-1h-2q-98 14 -174.5 42.5t-125 75.5t-48.5 105q0 68 61.5 118.5t164.5 79.5q16 7 28 19q39 67 64 138q23 112 71 178.5t109 66.5q65 0 115 -74t70 -197v0v-1v-1v-1q-1 -7 -4 -14q17 -48 34 -82q8 -4 14 -10
q16 -14 34 -20h4q106 -29 168.5 -80t62.5 -120q0 -59 -48.5 -106t-126 -75.5t-175.5 -41.5z" />
    <glyph glyph-name="uniE658" unicode="&#xe658;" 
d="M886 -62h-91q-53 0 -85 31t-32 93v104q0 52 33.5 88t83.5 36h37q-17 19 -42 19h-516q-25 0 -42 -19q50 -1 82 -36.5t32 -87.5v-104q0 -52 -33 -88t-84 -36h-90q-52 0 -88.5 36.5t-36.5 88.5v102q0 52 36.5 88.5t88.5 36.5h17q12 39 44.5 63.5t73.5 24.5h197v54h-45
q-53 0 -87 28.5t-34 78.5v166q0 53 35 89t86 36h158q51 0 83 -36t32 -89v-145q0 -53 -32 -90.5t-83 -37.5h-51v-54h257q42 0 75 -25.5t44 -64.5q44 -9 72.5 -43.5t28.5 -79.5v-102q0 -52 -36.5 -88.5t-87.5 -36.5zM118 228q-26 -6 -33.5 -20.5t-7.5 -41.5v-104
q0 -23 19 -42.5t43 -19.5h83q23 0 43.5 20t20.5 43v102q0 26 -9 41t-34 22h-125zM637 560v145q0 27 -10 45t-32 18h-166q-23 0 -42.5 -19.5t-19.5 -43.5v-166q0 -39 59 -39h158q23 0 38 18t15 42zM948 166q1 16 -15 38.5t-34 21.5l-117 2q-28 -13 -35.5 -25.5t-7.5 -37.5
v-102q0 -52 43 -63h125q16 0 28.5 19t12.5 43v104z" />
    <glyph glyph-name="uniE659" unicode="&#xe659;" 
d="M886 -62h-91q-53 0 -85 31t-32 93v104q0 52 33.5 88t83.5 36h37q-17 19 -42 19h-516q-25 0 -42 -19q50 -1 82 -36.5t32 -87.5v-104q0 -52 -33 -88t-84 -36h-90q-52 0 -88.5 36.5t-36.5 88.5v102q0 52 36.5 88.5t88.5 36.5h17q12 39 44.5 63.5t73.5 24.5h197v54h-45
q-53 0 -87 28.5t-34 78.5v166q0 53 35 89t86 36h158q51 0 83 -36t32 -89v-145q0 -53 -32 -90.5t-83 -37.5h-51v-54h257q42 0 75 -25.5t44 -64.5q44 -9 72.5 -43.5t28.5 -79.5v-102q0 -52 -36.5 -88.5t-87.5 -36.5z" />
    <glyph glyph-name="uniE65A" unicode="&#xe65a;" 
d="M907 194h-208l-43 78l-181 -76l43 -43l-59 -205l-205 -59l-147 146l59 206l205 59l57 -57l198 83l-31 55l52 93l-10 -10l-249 142v-38l-187 -104l-187 104v207l187 104l187 -104v-95l280 -168l31 56h208l103 -187zM349 234l-139 -37l-37 -140l103 -102l139 37l37 139z
M326 744l-125 73l-124 -73v-145l124 -73l125 73v145zM876 506h-146l-72 -125l72 -125h146l72 125z" />
    <glyph glyph-name="uniE65B" unicode="&#xe65b;" 
d="M907 194h-208l-43 78l-181 -76l43 -43l-59 -205l-205 -59l-147 146l59 206l205 59l57 -57l198 83l-31 55l52 93l-10 -10l-249 142v-38l-187 -104l-187 104v207l187 104l187 -104v-95l280 -168l31 56h208l103 -187z" />
    <glyph glyph-name="uniE65C" unicode="&#xe65c;" 
d="M1003 -104q-9 -9 -24 -6.5t-27 14.5l-869 869q-2 2 -7 9v-760q0 -15 -9 -25.5t-22 -10.5t-22 10.5t-9 25.5v820q0 1 0.5 2t0.5 1.5t-1 0.5v1q0 10 8 19l2 3l1 1h1q9 9 19 9q1 0 1.5 -0.5t1 -0.5h1.5l1 1h820q15 0 25.5 -9.5t10.5 -22t-10.5 -22t-25.5 -9.5h-743l869 -868
q12 -12 14 -27.5t-7 -24.5z" />
    <glyph glyph-name="uniE65D" unicode="&#xe65d;" 
d="M505 155q-13 0 -22 9t-9 22v331l-117 -116q-9 -9 -21.5 -9t-21.5 9t-9 21.5t9 21.5l159 158q9 9 21.5 9t21.5 -9q2 -2 5 -7q18 5 30 -7l159 -159q9 -9 9 -21.5t-9 -21.5t-21.5 -9t-21.5 9l-131 131v-331q0 -13 -9 -22t-22 -9zM1010 378q0 -13 -9 -22t-22 -9t-22 9t-9 22
q0 1 1 4v1h-1v1q0 88 -34.5 169t-93 139t-139 92.5t-169.5 34.5t-169.5 -34.5t-139 -92.5t-93 -139t-34.5 -169.5t34.5 -169t93 -139t139 -93t169.5 -34.5q113 0 210 54t156 146h5q1 12 9.5 20t20.5 8q11 0 19.5 -8t10.5 -19h8l-9 -15q-1 -4 -5 -9q-67 -109 -179.5 -174
t-245.5 -65q-101 0 -193.5 39.5t-159 106t-106 159t-39.5 193.5t39.5 193t106 159t159 106.5t193.5 39.5t193 -39.5t159 -106t106.5 -158.5t39.5 -193h-1q1 -6 1 -7z" />
    <glyph glyph-name="uniE65E" unicode="&#xe65e;" 
d="M980 354h-880l300 -301q9 -9 9 -21.5t-9 -21.5t-21.5 -9t-21.5 9l-333 333q-17 16 -4 37q-7 9 -6.5 20.5t8.5 19.5l338 338q9 9 21.5 9t22 -9t9.5 -22t-9 -22l-298 -298h874q13 0 22 -9t9 -22t-9 -22t-22 -9z" />
    <glyph glyph-name="uniE65F" unicode="&#xe65f;" 
d="M502 612q13 0 22 -9t9 -22v-338l133 134q9 9 22 9t22 -9t9 -22t-9 -22l-161 -162q-13 -12 -31 -7q-3 -6 -4 -7q-10 -10 -22.5 -10t-22.5 9l-161 162q-9 9 -9 22t9 22t22 9t22 -9l119 -119v338q0 13 9 22t22 9zM1010 378q0 -13 -9 -22t-22 -9t-22 9t-9 22q0 1 1 4v1h-1v1
q0 88 -34.5 169t-93 139t-139 92.5t-169.5 34.5t-169.5 -34.5t-139 -92.5t-93 -139t-34.5 -169.5t34.5 -169t93 -139t139 -93t169.5 -34.5q113 0 210 54t156 146h5q1 12 9.5 20t20.5 8q11 0 19.5 -8t10.5 -19h8l-9 -15q-1 -4 -5 -9q-67 -109 -179.5 -174t-245.5 -65
q-101 0 -193.5 39.5t-159 106t-106 159t-39.5 193.5t39.5 193t106 159t159 106.5t193.5 39.5t193 -39.5t159 -106t106.5 -158.5t39.5 -193h-1q1 -6 1 -7z" />
    <glyph glyph-name="uniE660" unicode="&#xe660;" 
d="M1010 -83q0 -10 -8 -19l-2 -2q0 -1 -1 -2h-1q-9 -8 -19 -8h-1h-1h-1h-2h-819q-15 0 -26 9t-11 22t11 22t26 9h742l-868 874q-12 13 -14 28t7 24.5t24 7t27 -14.5l868 -875q2 -2 7 -9v765q0 15 9 25.5t22 10.5t22 -10.5t9 -25.5v-826v-1v-1v-2v-1z" />
    <glyph glyph-name="uniE661" unicode="&#xe661;" 
d="M944 252l-114 76q-52 34 -89 35q-9 1 -15 -2t-14.5 -9.5t-12.5 -9.5q-8 -5 -29 -28.5t-33 -33.5l-51 -63q-86 5 -156 74q-50 49 -84 114l104 83q61 49 62 103q2 46 -26 90l-79 126q-22 35 -58.5 54.5t-78.5 20.5q-47 0 -87 -24l-54 -32v-1q-25 -11 -25 -39q0 -17 8 -22.5
t27 -5.5h21l62 41q2 1 11.5 8t16.5 10t13 3q21 0 47.5 -13t35.5 -29l83 -124q22 -35 21 -63q-1 -38 -41 -62l-42 -41q-2 -2 -16.5 -10t-23.5 -15t-20.5 -18.5t-17.5 -27t-5 -33.5q7 -19 45 -65t80 -80q25 -21 48 -35.5t44.5 -22.5t34.5 -12t33.5 -8t25.5 -5q3 0 11 -1t10 1
q1 2 10.5 10.5t10.5 9.5l62 83q6 10 20 24t22 18q4 2 8.5 2.5t9.5 -0.5t9 -2t9.5 -4.5t8.5 -5t9 -5.5t8 -6l145 -104q1 -5 0 -62l-62 -104q-11 -10 -26.5 -20t-25.5 -16l-10 -5q-24 -14 -42 -21q0 1 -15 1h-40q-25 0 -49 -1q-112 2 -222.5 51t-192.5 136q-73 78 -126 188
t-60 206q-1 3 -0.5 21.5t0.5 20.5v41q0 5 -0.5 11t0.5 10v42v9v6v4q0 2 -2 1.5t-3.5 0t-6.5 0t-9 -0.5q-19 0 -30.5 -10.5t-11.5 -30.5v-21q1 -12 0.5 -47.5t0.5 -49.5q6 -118 55 -229.5t135 -203.5q97 -102 222 -158.5t256 -58.5q59 -1 106 6t55 15q6 1 12.5 3.5t14 7
t11.5 6.5q38 18 61 54l47 74q24 38 20 104q-1 33 -17 55t-49 42v-1z" />
    <glyph glyph-name="uniE662" unicode="&#xe662;" 
d="M1010 124q2 -49 -23 -89l-44 -70q-23 -36 -61 -55q-18 -8 -39 -12h1v-1q-44 -14 -117 -10q-24 -1 -44 -1q-131 2 -256 58.5t-222 158.5q-86 92 -135 203.5t-55 229.5q-1 14 -0.5 49.5t-0.5 47.5v21q0 25 19 35q24 69 77 118q7 13 19 18v1l54 32q40 24 87 24h1h1
q42 -1 78 -21t58 -55l33 -54l45 -71q28 -44 26 -89q0 -20 -8 -39q-17 -62 -72 -95l-73 -45q8 -41 34 -82q16 -19 37 -40q70 -69 156 -74l30 37l13 21q18 29 49 48q14 15 21 19q4 3 12.5 9.5t14.5 9.5t15 2q37 -1 89 -35l114 -75q33 -20 49 -42t17 -55q1 -15 0 -32z" />
    <glyph glyph-name="uniE663" unicode="&#xe663;" 
d="M861 698q-40 40 -109 40q-84 0 -189 -57t-202 -155q-69 -70 -118.5 -146t-72 -143t-18 -124.5t38.5 -92.5l21 -21q25 -25 59.5 -25t59.5 25l85 86q24 24 24 59.5t-24 59.5l-22 22q-7 7 -9 18t2 27t14 36t30 45.5t48 53.5q95 96 152 96q16 0 27 -10l21 -21
q24 -24 59.5 -24t58.5 24l85 86q25 24 25 59.5t-25 59.5zM849 591l-85 -86q-7 -7 -16.5 -9.5t-19 0t-15.5 9.5l-22 21q-24 25 -60 25q-76 0 -185 -111q-43 -42 -68.5 -80.5t-33.5 -64.5t-6.5 -48.5t8 -34t15.5 -20.5l21 -22q11 -10 11 -25.5t-11 -25.5l-85 -86
q-10 -11 -25.5 -11t-25.5 11l-21 21q-26 27 -26 76t22.5 108t67.5 126t105 128q90 90 187 144t171 54q49 0 75 -26l21 -22q6 -5 8.5 -11.5t2.5 -14.5q0 -15 -10 -25z" />
    <glyph glyph-name="uniE664" unicode="&#xe664;" 
d="M695 265h-363q-6 0 -10.5 -2t-8 -5.5t-5.5 -8.5t-2 -10q0 -11 7.5 -19t18.5 -8h363q11 0 18.5 8t7.5 19t-7.5 18.5t-18.5 7.5zM695 160h-363q-11 0 -18.5 -7.5t-7.5 -18.5q0 -3 0.5 -6t1.5 -6l4 -4q1 -3 3.5 -5t5 -3t5.5 -2t6 -1h363q11 0 18.5 8t7.5 19t-7.5 18.5
t-18.5 7.5zM332 527h207q6 0 10.5 2t8 5.5t5.5 8.5t2 10q0 8 -3 14t-9 9.5t-14 3.5h-207q-11 0 -18.5 -8t-7.5 -19q0 -7 3.5 -13t9 -9.5t13.5 -3.5zM754 632h-65q-4 0 -7.5 2t-6 5t-4.5 7t-2 9v59q0 31 -20.5 53.5t-50.5 22.5h-325q-29 0 -50 -22.5t-21 -53.5v-688
q0 -32 21 -54t50 -22h481q29 0 50 22t21 54v531q0 31 -21 53t-50 22zM773 527v-501q0 -10 -5.5 -16.5t-13.5 -6.5h-481q-8 0 -13.5 6.5t-5.5 16.5v688q0 5 1.5 9t4 7t6 5t7.5 2h325q8 0 13.5 -6.5t5.5 -16.5v-59q0 -20 10 -37.5t26.5 -27.5t35.5 -10h65q3 0 6 -1.5t5.5 -3.5
t4 -5t2.5 -6.5t1 -6.5v-30zM695 370h-363q-6 0 -10.5 -2t-8 -5.5t-5.5 -8.5t-2 -10q0 -11 7.5 -19t18.5 -8h363q11 0 18.5 8t7.5 18.5t-7.5 18.5t-18.5 8zM695 475h-363q-6 0 -10.5 -2t-8 -5.5t-5.5 -8.5t-2 -11q0 -3 0.5 -6.5t2.5 -6.5t5 -5l4 -4q3 -2 6.5 -3t7.5 -1h363
q11 0 18.5 8t7.5 18q0 8 -3.5 14t-9.5 9.5t-13 3.5z" />
    <glyph glyph-name="uniE665" unicode="&#xe665;" 
d="M738 12v133q49 11 89 36t68 59.5t43.5 78t15.5 91.5v50q0 113 -82 192.5t-198 79.5h-303q-76 0 -140 -36.5t-101.5 -99t-37.5 -136.5v-50q0 -38 10 -75.5t28.5 -69t44.5 -58.5t56.5 -45.5t66.5 -29.5t73 -11h82l245 -133q7 -3 13 -3q8 0 14 4q13 8 13 23zM707 192
q-10 -1 -16.5 -8.5t-6.5 -17.5v-109l-211 114q-3 2 -6.5 2.5t-6.5 0.5h-89q-90 0 -157.5 71t-67.5 165v50q0 91 66 155t159 64h303q94 0 160 -64t66 -155v-50q0 -55 -23.5 -101t-67.5 -76.5t-102 -40.5z" />
    <glyph glyph-name="uniE666" unicode="&#xe666;" 
d="M732 390l-397 404l-36 -37l397 -403l-361 -367l36 -37l397 404z" />
    <glyph glyph-name="uniE667" unicode="&#xe667;" 
d="M262 354q-13 0 -24.5 -7t-18 -18.5t-6.5 -25.5q0 -21 14.5 -35.5t35.5 -14.5q5 0 10 1t9.5 2.5t8.5 4.5t7 6.5t6 7.5t5 8.5t3 9.5t1 10q0 14 -7 25.5t-18.5 18.5t-24.5 7h-1zM910 568q1 61 -60 78l-563 114q-15 0 -28.5 -6t-23.5 -16t-16 -24t-6 -30v-102h-25
q-31 0 -53 -22t-22 -54v-405q0 -32 22 -54t53 -22h648q20 0 37.5 10t27.5 27.5t10 38.5zM263 684q0 3 0.5 6t1.5 5t2.5 4.5t3.5 4.5l4 2q2 2 5 2.5t5 1.5l550 -114l-2 -4q-2 -3 -8 -6.5t-14 -3.5h-548v102zM861 101q0 -6 -2 -10.5t-5.5 -8t-8 -5.5t-9.5 -2h-648
q-10 0 -17.5 7.5t-7.5 18.5v405q0 11 7.5 18.5t17.5 7.5h623q20 0 35 6.5t15 18.5v-456z" />
    <glyph glyph-name="uniE668" unicode="&#xe668;" 
d="M932 173v394q0 33 -23 56t-56 23h-682q-22 0 -40 -10.5t-28.5 -28.5t-10.5 -40v-394q0 -32 23 -55t56 -23h682q33 0 56 23t23 55zM880 173q0 -5 -2.5 -10t-6 -8.5t-8 -5.5t-10.5 -2h-682q-6 0 -10.5 2t-8 5.5t-6 8.5t-2.5 10v237h736v-237zM880 515h-736v52q0 11 8 19
t19 8h682q11 0 19 -8t8 -19v-52z" />
    <glyph glyph-name="uniE669" unicode="&#xe669;" 
d="M915 -48q-3 0 -6 1l-265 104l-263 -107l-265 105q-11 3 -18.5 13t-7.5 21v685q0 9 5.5 14.5t13.5 5.5q2 0 3.5 -0.5t3.5 -0.5l265 -104l263 104l265 -110q5 -1 9.5 -4.5t8 -8t5.5 -10t2 -10.5v-678q0 -9 -5 -14.5t-14 -5.5zM354 645l-211 78v-621l211 -86v629zM407 16
l211 83v629l-211 -83v-629zM882 636l-211 91v-627l211 -80v616z" />
    <glyph glyph-name="uniE66A" unicode="&#xe66a;" 
d="M870 192q-22 28 -36 47t-28 50.5t-14 58.5v186q0 120 -79.5 204.5t-193.5 84.5t-193 -84.5t-79 -204.5v-186q0 -16 -4.5 -32.5t-16 -35.5t-17.5 -28.5t-23 -31.5t-20 -25q-11 -15 -16 -22.5t-12 -19.5t-9.5 -20t-2 -17.5t4.5 -18.5q16 -29 73 -29h164q0 -63 44.5 -107.5
t107 -44.5t107 44.5t44.5 107.5h167q58 0 72 29q10 20 -0.5 40t-39.5 55zM519 -24q-38 0 -65 26.5t-27 65.5h185q0 -38 -27 -65t-66 -27zM838 128h-645q7 10 22 30q1 2 18 24.5t22 29.5t18.5 28.5t18.5 35t10.5 33.5t5.5 39v186q0 62 27.5 114.5t76 83.5t107.5 31
q89 0 150.5 -67t61.5 -162v-186q0 -19 4 -38.5t11.5 -37.5t15.5 -33t20.5 -32t20.5 -27.5t21 -25.5q14 -18 20 -26h-6z" />
    <glyph glyph-name="uniE66B" unicode="&#xe66b;" horiz-adv-x="1088" 
d="M90 330l364 -380q6 12 18.5 33t48 80.5t69 113t77 118.5t77 109.5t71.5 93.5t68 86.5t55 69t38 48.5l14 17l-34 75q-5 -3 -12 -9t-29.5 -24t-45 -37t-53.5 -46t-59 -53.5t-58.5 -57t-54.5 -58.5q-52 -60 -107 -126t-85 -103l-29 -36l-220 205z" />
    <glyph glyph-name="uniE66C" unicode="&#xe66c;" 
d="M857 -24h-741v792h792v-792h-51zM857 26v198h-197v-198h197zM611 26v198h-198v-198h198zM364 26v198h-198v-198h198zM364 717h-198v-197h198v197zM166 471v-199h198v199h-198zM611 717h-198v-197h198v197zM413 471v-199h198v199h-198zM857 717h-197v-197h197v197z
M660 471v-199h197v199h-197z" />
    <glyph glyph-name="uniE66D" unicode="&#xe66d;" 
d="M512 427q65 0 124.5 14.5t102.5 39.5t68 59t25 72q0 19 -6.5 37.5t-18.5 34.5t-29.5 31t-39 27.5t-47.5 22.5t-54.5 17t-60 11t-64.5 4q-87 0 -160.5 -25t-116.5 -67.5t-43 -92.5t43 -92.5t116.5 -67.5t160.5 -25zM512 747q53 0 105 -12t90 -30t62 -40.5t24 -44.5
q0 -28 -39 -57.5t-105.5 -49.5t-136.5 -20t-136 20t-105 49.5t-39 58t39 58t105 49t136 19.5zM512 350q-74 0 -141 24t-111 62t-60 82q-2 -5 -3.5 -10t-2.5 -10t-1.5 -10t-0.5 -11q0 -37 25 -71.5t68 -59t102.5 -39.5t124.5 -15q87 0 160.5 25t116.5 67.5t43 92.5
q0 21 -8 41q-25 -68 -113 -118t-199 -50v0zM512 215q-104 0 -190 54t-117 126q-7 -13 -10 -26t-3 -26q0 -50 43 -92.5t116.5 -67.5t160.5 -25t161 25t116.5 67.5t42.5 92.5q0 9 -1.5 18t-4 17.5t-7.5 16.5q-14 -34 -43.5 -66t-69 -57.5t-90.5 -41t-104 -15.5v0zM512 108
q-74 0 -141 23.5t-111 61.5t-60 83q-4 -10 -6 -20.5t-2 -20.5q0 -50 42.5 -92.5t116.5 -67.5t161 -25t160.5 24.5t116.5 67.5t43 93q0 7 -1 14t-2.5 13.5t-4.5 13.5q-7 -19 -19.5 -37t-29.5 -35t-38.5 -31.5t-47.5 -26.5t-54 -20.5t-59.5 -13t-63.5 -4.5v0zM512 0
q-111 0 -199 49.5t-113 118.5q-4 -10 -6 -20.5t-2 -20.5q0 -50 42.5 -92.5t116.5 -67.5t161 -25t160.5 25t116.5 67.5t43 92.5q0 21 -8 41q-25 -69 -113 -118.5t-199 -49.5v0z" />
    <glyph glyph-name="uniE66E" unicode="&#xe66e;" 
d="M865 717q-17 15 -40 15h-4q-4 -1 -24 -1q-26 0 -56.5 2.5t-59.5 9.5q-26 6 -56 25t-58 41.5t-30 23.5q-15 9 -32 9q-9 0 -17 -2t-16 -7l-4 -5q-5 -4 -12.5 -10.5t-17.5 -15t-23 -17.5t-26 -17t-28 -14.5t-29 -10.5q-51 -12 -117 -12q-21 0 -25 1h-4q-23 0 -39 -15
q-19 -17 -19 -41v-140q0 -106 20 -195t49.5 -147.5t70.5 -105t75.5 -70.5t72.5 -41.5t53 -21.5t25 -6q5 -1 11 -1q5 0 10 1q10 2 25.5 6t53.5 21.5t72.5 41.5t76 70.5t71 105t49.5 147.5t20 195v140q1 24 -18 41v0zM825 536q0 -97 -17.5 -179t-46 -135.5t-62.5 -95
t-68 -63.5t-62.5 -36.5t-46.5 -18.5l-17 -4q-7 1 -18.5 4t-44.5 18t-63 36.5t-67 64t-63 95.5t-44.5 135t-18.5 179v140h4q2 0 9.5 -0.5t15.5 -0.5q29 0 63.5 3t67.5 11q22 5 47 17t44 25.5t35 26t24 20.5l9 9q3 -4 9 -9t24.5 -20t37 -27t43.5 -24.5t48 -17.5
q58 -14 130 -14q8 0 15 0.5t10 0.5h4zM350 280l67 15q15 -82 92 -82q87 2 89 84q0 15 -4.5 27.5t-12.5 21.5t-21 15t-30 9t-38 3h-41v52h33q33 0 55 8t33.5 25t12.5 42q-4 68 -76 71q-36 0 -57.5 -20t-28.5 -60l-64 15q28 115 155 115q44 -2 74 -15t46.5 -38t19.5 -62
q0 -11 -2 -21.5t-6 -19.5t-9.5 -17t-12.5 -14.5t-16 -12.5t-19.5 -10.5t-22.5 -7.5q94 -20 101 -110q-3 -62 -42.5 -93.5t-115.5 -34.5q-131 -1 -159 115z" />
    <glyph glyph-name="uniE66F" unicode="&#xe66f;" 
d="M860 123q-22 16 -39 37t-29 44.5t-18 49.5t-6 53v154q0 95 -57.5 170t-147.5 101v36q0 12 -4 24t-11 21.5t-16.5 16.5t-21 11t-24.5 4q-15 0 -29.5 -6t-24.5 -16.5t-16 -24.5t-6 -30v-36q-59 -17 -105.5 -56.5t-73 -95.5t-26.5 -119v-154q0 -55 -24 -103t-68 -81
q-15 -11 -9 -28.5t24 -17.5h233q-1 -7 -2 -13t-1 -13q0 -26 10.5 -49.5t27.5 -41t40.5 -27.5t49.5 -10q53 0 90.5 37.5t37.5 90.5q0 13 -2 26h233q18 0 24 17q3 8 0.5 16t-9.5 13zM461 768q0 7 3.5 13t9 9.5t12.5 3.5q11 0 18.5 -7.5t7.5 -18.5v-27q-13 1 -25.5 1t-25.5 -1
v27zM563 51q0 -32 -22.5 -54.5t-54 -22.5t-54 22.5t-22.5 54.5q0 13 4 26h145q4 -13 4 -26zM192 128l4 6l4 4l8 12q2 3 4 5.5t3.5 5.5t3.5 6t3.5 6t2.5 6q31 60 31 128v154q0 62 31 115t84 84t115 31q96 0 163.5 -67.5t67.5 -162.5v-154q0 -68 30 -128q14 -27 34 -51h-589z
" />
    <glyph glyph-name="uniE670" unicode="&#xe670;" 
d="M717 589h51v-51h-51v51zM717 486h51v-51h-51v51zM717 384h51v-51h-51v51zM717 282h51v-52h-51v52zM717 77h51v-51h-51v51zM717 179h51v-51h-51v51zM307 589h51v-51h-51v51zM307 486h51v-51h-51v51zM307 384h51v-51h-51v51zM307 282h51v-52h-51v52zM307 77h51v-51h-51v51z
M307 179h51v-51h-51v51zM205 589h51v-51h-51v51zM205 486h51v-51h-51v51zM205 384h51v-51h-51v51zM205 282h51v-52h-51v52zM205 77h51v-51h-51v51zM205 179h51v-51h-51v51zM410 589h51v-51h-51v51zM410 486h51v-51h-51v51zM410 384h51v-51h-51v51zM410 282h51v-52h-51v52z
M410 77h51v-51h-51v51zM410 179h51v-51h-51v51zM947 -77h-25v691q0 20 -9 38.5t-24 33t-34 20.5l-241 80v84q0 13 -10 21q-3 2 -7 3.5t-8 1.5t-8 -1l-463 -139q-28 -8 -47.5 -34.5t-19.5 -55.5v-743h-25q-11 0 -18.5 -7.5t-7.5 -18t7.5 -18t18.5 -7.5h921q11 0 18.5 7.5
t7.5 18t-7.5 18t-18.5 7.5zM839 657q13 -4 22 -17t9 -26v-691h-256v809zM102 666q0 12 9.5 24.5t21.5 16.5l430 129v-913h-461v743z" />
    <glyph glyph-name="uniE671" unicode="&#xe671;" 
d="M505 -95l307 307q7 8 7 18.5t-7.5 18t-18 7.5t-17.5 -8l-264 -263v834q0 11 -7.5 18.5t-18 7.5t-18 -7.5t-7.5 -18.5v-834l-264 263q-7 8 -17.5 8t-18 -7.5t-7.5 -18.5q0 -5 2 -9.5t5 -8.5l307 -307q8 -7 18.5 -7t18.5 7z" />
    <glyph glyph-name="uniE672" unicode="&#xe672;" 
d="M830 14.5q69 68.5 106 157.5t37 186.5t-37 186t-106 157.5q-34 35 -74 61.5t-83.5 44.5t-90.5 27.5t-96 9.5q-38 0 -76 -6t-74 -18t-70 -29t-65 -39.5t-59 -50.5q-68 -69 -105 -157.5t-37 -186t37 -186.5t105.5 -157.5t157.5 -105.5t186.5 -37t186 37t157.5 105.5z
M51 358q0 89 34.5 169.5t93 139t139 93t168.5 34.5q71 0 137.5 -22t120 -62.5t94 -94t62.5 -120t22 -137.5q0 -180 -128 -307.5t-308 -127.5q-88 0 -168.5 34.5t-139 93t-93 139t-34.5 168.5zM504 59l205 205q8 7 8 17.5t-7.5 18t-18 7.5t-18.5 -7l-161 -161v527
q0 10 -7.5 17.5t-18 7.5t-18 -7.5t-7.5 -17.5v-527l-161 161q-5 5 -11.5 6.5t-13.5 0t-12 -6.5q-7 -8 -7 -18.5t8 -17.5l204 -205q8 -8 18.5 -8t18.5 8h-1z" />
    <glyph glyph-name="uniE673" unicode="&#xe673;" 
d="M33 377l307 307q8 7 18.5 7t17.5 -7q5 -5 7 -11.5t0 -13.5t-7 -11l-263 -264h834q11 0 18.5 -7.5t7.5 -18.5q0 -4 -1.5 -8t-4 -7t-5.5 -5.5t-7 -3.5t-8 -1h-834l263 -264q3 -2 4.5 -4.5t2 -5t1 -5.5t0 -5.5t-1 -5.5t-2 -5.5t-4.5 -4.5q-8 -7 -18 -7q-10 1 -18 7l-307 307
q-7 8 -7 18.5t7 18.5z" />
    <glyph glyph-name="uniE674" unicode="&#xe674;" 
d="M142.5 702q68.5 69 157.5 106t186.5 37t186 -37t157.5 -106t106 -157.5t37 -186t-37 -186.5t-106 -157.5t-157.5 -105.5t-186 -37t-186.5 37t-157.5 105.5t-105.5 157.5t-37 186.5t37 186t105.5 157.5zM486 -77q89 0 169.5 34.5t139 93t93 139t34.5 168.5q0 180 -128 308
t-308 128q-59 0 -115 -16t-104 -44t-88 -68t-68 -88t-44 -104.5t-16 -115.5q0 -88 34.5 -168.5t93 -139t139 -93t168.5 -34.5zM187 376l205 205q4 5 11 7t13.5 0t11.5 -7t6.5 -11.5t0 -13t-6.5 -11.5l-161 -161h527q10 0 17.5 -7.5t7.5 -18.5q0 -4 -1 -8t-3.5 -7t-5.5 -5.5
t-7 -3.5t-8 -1h-527l161 -161q7 -8 7 -18.5t-7.5 -18t-17.5 -7.5q-5 0 -10 2t-8 6l-205 204q-8 8 -8 18.5t8 18.5v-1z" />
    <glyph glyph-name="uniE675" unicode="&#xe675;" 
d="M991 377l-307 307q-8 7 -18.5 7t-18 -7.5t-7.5 -18t8 -17.5l263 -264h-834q-7 0 -13 -3.5t-9.5 -9.5t-3.5 -12.5t3.5 -12.5t9.5 -9.5t13 -3.5h834l-263 -264q-8 -7 -8 -17.5t7.5 -18t18.5 -7.5q10 1 18 7l307 307q4 4 5.5 9t1.5 9.5t-1.5 9.5t-5.5 9z" />
    <glyph glyph-name="uniE676" unicode="&#xe676;" 
d="M830 702q-69 69 -157.5 106t-186 37t-186.5 -37t-157.5 -106t-105.5 -157.5t-37 -186t37 -186.5t105.5 -157.5t157.5 -105.5t186.5 -37t186 37t157.5 105.5t106 157.5t37 186.5t-37 186t-106 157.5zM486 -77q-88 0 -168.5 34.5t-139 93t-93 139t-34.5 169t34.5 169
t93 139t139 93t168.5 34.5q71 0 137.5 -22t120 -62.5t94 -94t62.5 -120t22 -137.5q0 -166 -112 -290q-107 -120 -266 -141q-29 -4 -58 -4zM786 376l-205 205q-7 8 -17.5 8t-18 -7.5t-7.5 -18t7 -18.5l161 -161h-527q-4 0 -8 -1.5t-7 -3.5t-5.5 -5.5t-3.5 -7t-1 -8.5v-4
q0 -2 1 -4.5t2 -4t2.5 -3.5t3 -3.5t3.5 -2.5t4 -1.5t4.5 -1t4.5 -0.5h527l-161 -161q-4 -4 -5.5 -9t-1.5 -9.5t1.5 -9.5t5.5 -9q8 -7 18 -7q5 0 10 2t8 6l205 204q8 8 8 18.5t-8 18.5v-1z" />
    <glyph glyph-name="uniE677" unicode="&#xe677;" 
d="M468 863l-307 -307q-5 -5 -6.5 -11.5t0 -13.5t6.5 -11.5t11.5 -6.5t13 0t11.5 7l264 263v-834q0 -4 1 -8t3.5 -7t5.5 -5.5t7 -4t8 -1.5q11 0 18.5 7.5t7.5 18.5v834l263 -263q8 -8 18.5 -8t18.5 8q3 3 5 8t2 10q-1 10 -7 18l-308 307q-3 4 -8 5.5t-10 1.5t-9.5 -1.5
t-8.5 -5.5z" />
    <glyph glyph-name="uniE678" unicode="&#xe678;" 
d="M26 -77q-20 0 -25 19q-2 8 1 16t10 13q98 58 136 163q-71 54 -109.5 125.5t-38.5 150.5t39 151q13 23 29 44.5t35 41t42 36.5q68 54 156.5 82.5t184.5 28.5q49 0 95.5 -7.5t89.5 -21.5t83 -34.5t74 -47.5q13 -10 25.5 -21.5t24 -23t21.5 -24.5t18.5 -26t15.5 -27
q40 -72 40 -151.5t-40 -151.5q-37 -69 -105 -122q-69 -53 -157 -81.5t-185 -28.5q-26 0 -52 2t-51.5 6.5t-50.5 10.5q-55 -36 -112 -65q-115 -57 -194 -57zM486 742q-59 0 -115 -12t-104 -33.5t-88 -52t-68 -67t-44 -79.5t-16 -88q0 -35 9.5 -69t27.5 -65.5t44.5 -59.5
t59.5 -52q15 -10 10 -27q-20 -78 -81 -143q93 32 192 100q10 7 21 4q74 -21 152 -21q118 0 218.5 44.5t159 121t58.5 167.5q0 54 -22 104.5t-62.5 91.5t-94 72t-120 47.5t-137.5 16.5z" />
    <glyph glyph-name="uniE679" unicode="&#xe679;" horiz-adv-x="1025" 
d="M993 737q-14 42 -32.5 67.5t-33.5 33t-31 7.5h-2q-28 -1 -154 -38q-84 -24 -137 -38.5t-145 -35.5t-181 -31.5t-175 -10.5q-21 0 -40 -13.5t-32.5 -37.5t-21.5 -57t-8 -71q0 -77 29.5 -128t72.5 -51q15 0 29 -0.5t28 -0.5l85 -340q8 -29 33.5 -49t55.5 -20h67
q35 0 51.5 25.5t3.5 57.5l-132 310q160 -24 417 -99q126 -37 154 -38h2q26 0 51.5 23.5t45.5 84.5q31 94 31 225t-31 225zM819 512q0 39 4 77q19 -2 33 -24.5t14 -52.5t-14 -52.5t-33 -24.5zM51 512q0 55 17 91.5t34 36.5q83 0 173 10q-19 -60 -19 -138t19 -138
q-90 10 -173 10q-17 0 -34 36.5t-17 91.5zM408 -14q1 -3 1.5 -6t-0.5 -3q-1 -1 -3 -2t-6 -1h-67q-12 0 -24 9.5t-15 21.5l-81 323q13 -1 25.5 -2t25.5 -3zM332 366q-25 57 -25 146q0 90 25 146q164 24 423 100l60 18q-3 -6 -5.5 -12t-5 -12.5t-5.5 -14.5q-4 -13 -8 -27
t-7 -29t-5.5 -31t-4.5 -33t-3.5 -34t-2 -35t-0.5 -36q0 -42 3.5 -82.5t10.5 -76.5t17 -66q7 -22 16 -39q-9 3 -20 6t-19.5 5.5t-20.5 6.5q-78 23 -126.5 36t-134.5 33t-162 31zM944 303q-7 -20 -14.5 -35.5t-14 -23t-11 -11t-8.5 -3.5q-5 0 -12 6t-17 23t-19 44
q-12 36 -19 82q18 2 35 12t30 27q28 37 28 88t-28 88q-13 17 -30 27t-35 12q3 23 8 43.5t11 38.5q5 14 10 25.5t9.5 19t8.5 13.5t8 9t7 4.5t5 1.5q4 0 8.5 -3.5t11 -11t14 -23t14.5 -35.5q9 -27 15.5 -60.5t10 -71t3.5 -77.5q0 -123 -29 -209z" />
    <glyph glyph-name="uniE67A" unicode="&#xe67a;" horiz-adv-x="1025" 
d="M947 794h-128v25q0 5 -2 10t-5.5 8.5t-8 5.5t-9.5 2q-11 0 -18.5 -7.5t-7.5 -18.5v-25h-512v25q0 4 -1 7t-2.5 6t-4 5.5t-5 4t-6 2.5t-7.5 1q-10 0 -17.5 -7.5t-7.5 -18.5v-25h-128q-16 0 -30 -6.5t-24.5 -16.5t-16.5 -24.5t-6 -29.5v-717q0 -32 22.5 -54.5t54.5 -22.5
h870q16 0 30 6t24.5 16.5t16.5 24.5t6 30v717q0 15 -6 29.5t-16.5 24.5t-24.5 16.5t-30 6.5zM77 742h128v-76q0 -6 2 -10.5t5.5 -8t8 -5.5t10 -2t10 2t8 5.5t5.5 8t2 10.5v76h512v-76q0 -6 2 -10.5t5.5 -8t8 -5.5t10.5 -2q4 0 8 1.5t7 3.5t5.5 5.5t3.5 7t1 8.5v76h128
q11 0 18.5 -7.5t7.5 -17.5v-128h-922v128q7 20 26 25zM947 -26h-870q-11 0 -18.5 7.5t-7.5 18.5v538h922v-538q0 -11 -7.5 -18.5t-18.5 -7.5zM384 384h-51q-11 0 -18.5 7.5t-7.5 18.5q0 7 3.5 12.5t9.5 9t13 3.5h51q11 0 18.5 -7.5t7.5 -18t-7.5 -18t-18.5 -7.5zM538 384
h-52q-10 0 -17.5 7.5t-7.5 18.5q0 7 3.5 12.5t9 9t12.5 3.5h52q10 0 17.5 -7.5t7.5 -17.5q0 -6 -2 -10.5t-5.5 -8t-8 -5.5t-9.5 -2zM691 384h-51q-11 0 -18.5 7.5t-7.5 18t7.5 18t18.5 7.5h51q11 0 18.5 -7.5t7.5 -18t-7.5 -18t-18.5 -7.5zM845 384h-51q-11 0 -18.5 7.5
t-7.5 18t7.5 18t18.5 7.5h51q10 0 17.5 -7.5t7.5 -18t-7.5 -18t-17.5 -7.5zM230 282h-51q-4 0 -8 1t-7 3.5t-5.5 5.5t-3.5 7t-1 8t1 8t3.5 7t5.5 5.5t7 4t8 1.5h51q7 0 13 -3.5t9.5 -9.5t3.5 -13q0 -4 -1.5 -8t-3.5 -7t-5.5 -5.5t-7 -3.5t-8.5 -1zM384 282h-51
q-11 0 -18.5 7.5t-7.5 17.5q0 5 2 10t5.5 8.5t8.5 5.5t10 2h51q11 0 18.5 -7.5t7.5 -18.5q0 -3 -1 -6.5t-3 -6.5t-4 -5t-5 -4t-6.5 -2.5t-6.5 -0.5zM538 282h-52q-10 0 -17.5 7.5t-7.5 18t7.5 18t17.5 7.5h52q10 0 17.5 -7.5t7.5 -18.5q0 -4 -1 -8t-3.5 -7t-5.5 -5.5
t-7 -3.5t-8 -1zM691 282h-51q-11 0 -18.5 7.5t-7.5 17.5q0 4 1.5 8t4 7t5.5 5.5t7 4t8 1.5h51q11 0 18.5 -7.5t7.5 -18.5q0 -4 -1.5 -8t-4 -7t-5.5 -5.5t-7 -3.5t-8 -1zM845 282h-51q-11 0 -18.5 7.5t-7.5 17.5q0 4 1.5 8t3.5 7t5.5 5.5t7 4t8.5 1.5h51q10 0 17.5 -7.5
t7.5 -18.5q0 -4 -1 -8t-3.5 -7t-5.5 -5.5t-7 -3.5t-8 -1zM230 179h-51q-4 0 -8 1.5t-7 4t-5.5 5.5t-3.5 7t-1 8t1 8t3.5 7t5.5 5.5t7 3.5t8 1h51q7 0 13 -3t9.5 -9t3.5 -13t-3.5 -13t-9.5 -9.5t-13 -3.5zM384 179h-51q-11 0 -18.5 7.5t-7.5 18.5q0 5 2 9.5t5.5 8t8.5 5.5
t10 2h51q11 0 18.5 -7.5t7.5 -18t-7.5 -18t-18.5 -7.5zM538 179h-52q-10 0 -17.5 7.5t-7.5 18.5q0 5 2 9.5t5.5 8t8 5.5t9.5 2h52q10 0 17.5 -7.5t7.5 -17.5q0 -5 -2 -10t-5.5 -8.5t-8 -5.5t-9.5 -2zM691 179h-51q-11 0 -18.5 7.5t-7.5 18.5q0 4 1.5 8t4 7t5.5 5.5t7 3.5
t8 1h51q11 0 18.5 -7.5t7.5 -18t-7.5 -18t-18.5 -7.5zM845 179h-51q-11 0 -18.5 7.5t-7.5 18.5q0 4 1.5 8t3.5 7t5.5 5.5t7 3.5t8.5 1h51q10 0 17.5 -7.5t7.5 -18t-7.5 -18t-17.5 -7.5zM230 77h-51q-4 0 -8 1t-7 3.5t-5.5 5.5t-3.5 7t-1 8q0 11 7.5 18.5t17.5 7.5h51
q5 0 8.5 -1.5t7 -3.5t5.5 -5.5t3.5 -7t1.5 -8.5q0 -7 -3.5 -12.5t-9.5 -9t-13 -3.5zM384 77h-51q-11 0 -18.5 7.5t-7.5 17.5q0 7 3.5 13t9.5 9.5t13 3.5h51q11 0 18.5 -7.5t7.5 -18t-7.5 -18t-18.5 -7.5zM538 77h-52q-10 0 -17.5 7.5t-7.5 17.5q0 7 3.5 13t9 9.5t12.5 3.5
h52q10 0 17.5 -7.5t7.5 -18.5q0 -3 -0.5 -5.5t-2.5 -4.5l-2 -6l-4 -4l-6 -2q-2 -2 -4.5 -2.5t-5.5 -0.5zM691 77h-51q-11 0 -18.5 7.5t-7.5 18t7.5 18t18.5 7.5h51q11 0 18.5 -7.5t7.5 -18t-7.5 -18t-18.5 -7.5zM845 77h-51q-11 0 -18.5 7.5t-7.5 18t7.5 18t18.5 7.5h51
q10 0 17.5 -7.5t7.5 -18t-7.5 -18t-17.5 -7.5z" />
    <glyph glyph-name="uniE67B" unicode="&#xe67b;" 
d="M486.5 128q-95.5 0 -163 67.5t-67.5 163t67.5 163t163 67.5t163 -67.5t67.5 -163t-67.5 -163t-163 -67.5zM486 538q-74 0 -126.5 -52.5t-52.5 -127t52.5 -127t126.5 -52.5q49 0 90.5 24t65.5 65.5t24 89.5q0 75 -52.5 127.5t-127.5 52.5zM896 -26h-819q-32 0 -54.5 22.5
t-22.5 54.5v512q0 32 22.5 54.5t54.5 22.5h77q7 0 17 2.5t19.5 6.5t18 9t14.5 11l30 30q19 18 49 30.5t56 12.5h256q27 0 57 -12.5t49 -30.5l30 -30q11 -12 32 -20.5t37 -8.5h77q13 0 24.5 -4t21 -11t16.5 -16.5t11 -21t4 -24.5v-512q0 -21 -10.5 -38.5t-28 -28t-38.5 -10.5
zM77 589q-7 0 -13 -3.5t-9.5 -9.5t-3.5 -13v-512q0 -10 7.5 -17.5t18.5 -7.5h819q11 0 18.5 7.5t7.5 17.5v512q0 11 -7.5 18.5t-18.5 7.5h-77q-6 0 -13.5 1t-14.5 2.5t-14 3.5t-14 5t-14 6.5t-13 7.5t-12 8.5t-10 9.5l-30 30q-12 11 -33 19.5t-37 8.5h-256q-16 0 -37 -8.5
t-32 -19.5l-30 -30q-12 -13 -30 -23t-38 -15.5t-38 -5.5h-76z" />
    <glyph glyph-name="uniE67C" unicode="&#xe67c;" 
d="M410 -128q-28 0 -51.5 13.5t-37.5 37.5t-14 51q0 43 30 73t72.5 30t72.5 -30t30 -72.5t-30 -72.5t-72 -30zM410 26q-14 0 -26 -7t-19 -19t-7 -26q0 -21 15 -36t36.5 -15t36.5 15t15 36.5t-15 36.5t-36 15zM768 -128q-21 0 -40 8t-32.5 22t-21.5 33t-8 39q0 43 30 73
t72 30t72 -30t30 -72.5t-30 -72.5t-72 -30zM768 26q-21 0 -36 -15t-15 -36.5t15 -36.5t36 -15t36 15t15 36.5t-15 36.5t-36 15zM898 667q-20 24 -53 24h-627l-5 31q-3 15 -10.5 28t-19 22.5t-26 15.5t-29.5 6h-51q-7 0 -13 -3.5t-9.5 -9.5t-3.5 -13t3.5 -13t9.5 -9.5
t13 -3.5h51q12 0 22 -8.5t12 -20.5l86 -513q5 -30 29.5 -51t55.5 -21h512q10 0 17.5 7.5t7.5 18t-7.5 18t-17.5 7.5h-512q-12 0 -22.5 9t-12.5 20l-12 76l510 44q20 2 37.5 13t29.5 27.5t15 36.5l35 206q5 33 -15 56zM862 619l-34 -206q-2 -12 -13 -22t-23 -12l-515 -44
l-51 305h619q9 0 14 -6t3 -15z" />
    <glyph glyph-name="uniE67D" unicode="&#xe67d;" 
d="M256 -128q-11 0 -18.5 7.5t-7.5 18t8 18.5l443 442l-443 443q-8 8 -8 18.5t8 17.5q5 5 11.5 7t13 0t11.5 -7l461 -461q4 -3 5.5 -8t1.5 -9.5t-1.5 -9.5t-5.5 -9l-461 -461q-7 -7 -18 -7z" />
    <glyph glyph-name="uniE67E" unicode="&#xe67e;" 
d="M830 702q-69 69 -157.5 106t-186 37t-186.5 -37t-157.5 -106t-105.5 -157.5t-37 -186t37 -186.5t105.5 -157.5t157.5 -105.5t186.5 -37t186 37t157.5 105.5t106 157.5t37 186.5t-37 186t-106 157.5zM486 -77q-88 0 -168.5 34.5t-139 93t-93 139t-34.5 169t34.5 169
t93 139t139 93t168.5 34.5q71 0 137.5 -22t120 -62.5t94 -94t62.5 -120t22 -137.5q0 -166 -112 -290q-107 -120 -266 -141q-29 -4 -58 -4zM410 77q-11 1 -19 7q-4 5 -6 11.5t0 13.5t6 11l238 238l-238 238q-4 5 -6 11.5t0 13.5t6 11t9 6t9.5 2t9.5 -2t9 -6l256 -256
q7 -7 7 -17.5t-7 -18.5l-256 -256l-6 -4q-3 -2 -6 -2.5t-6 -0.5z" />
    <glyph glyph-name="uniE67F" unicode="&#xe67f;" 
d="M0 128q1 -11 8 -18q7 -8 17.5 -8t18.5 8l442 443l443 -443q8 -8 18.5 -8t17.5 8q3 2 4.5 5t2.5 6.5t1 6.5t-1 6.5t-2.5 6.5t-4.5 5l-461 461q-4 5 -11 6.5t-13.5 0t-11.5 -6.5l-461 -461q-7 -7 -7 -18z" />
    <glyph glyph-name="uniE680" unicode="&#xe680;" 
d="M142 702q-68 -69 -105 -157.5t-37 -186t37 -186.5t105.5 -157.5t157.5 -105.5t186.5 -37t186 37t157.5 105.5t106 157.5t37 186.5t-37 186t-106 157.5t-157.5 106t-186.5 37q-38 0 -76 -6t-74 -18t-70 -29t-65 -39.5t-59 -50.5zM922 358q0 -59 -16 -115t-44 -104t-68 -88
t-88 -68t-104.5 -44t-115.5 -16q-88 0 -168.5 34.5t-139 93t-93 139t-34.5 168.5q0 71 22 137.5t62.5 120t94 94t120 62.5t136.5 22q51 0 100 -11.5t92 -33t80.5 -51.5t67.5 -67.5t51.5 -80.5t33 -92t11.5 -100zM768 282q0 -11 -7 -19q-3 -2 -6 -3.5t-6 -2.5t-6.5 -1t-6.5 1
t-6 2.5t-6 3.5l-238 238l-237 -238q-8 -7 -18.5 -7t-18 7.5t-7.5 18t7 18.5l256 256l6 4q3 2 6 2.5t6.5 0.5t6.5 -0.5t6 -2.5l6 -4l256 -256q7 -8 7 -18z" />
    <glyph glyph-name="uniE681" unicode="&#xe681;" 
d="M830 702q-69 69 -157.5 106t-186 37t-186.5 -37t-157.5 -106t-105.5 -157.5t-37 -186t37 -186.5t105.5 -157.5t157.5 -105.5t186.5 -37t186 37t157.5 105.5t106 157.5t37 186.5t-37 186t-106 157.5zM486 -77q-88 0 -168.5 34.5t-139 93t-93 139t-34.5 169t34.5 169
t93 139t139 93t168.5 34.5q71 0 137.5 -22t120 -62.5t94 -94t62.5 -120t22 -137.5q0 -166 -112 -290q-107 -120 -266 -141q-29 -4 -58 -4zM794 333h-615q-20 6 -25 25q0 6 2 10.5t5.5 8t8 5.5t9.5 2h615q2 0 4.5 -0.5t5 -1.5t4.5 -2.5t3.5 -3t3 -3.5t2.5 -4.5t1.5 -5
t0.5 -5.5q0 -5 -2 -9.5t-5.5 -8t-8 -5.5t-9.5 -2z" />
    <glyph glyph-name="uniE682" unicode="&#xe682;" horiz-adv-x="1025" 
d="M836 20q66 68 101.5 155.5t35.5 182.5q0 37 -5.5 72.5t-15.5 69.5t-25 66t-35 61.5t-44 56.5l35 35l33 -33q8 -8 18 -8q5 0 10 2t8 6q8 7 8 18t-8 18l-102 103q-7 7 -18 7t-18.5 -7.5t-7.5 -18t8 -18.5l33 -33l-35 -35q-17 15 -35 28.5t-37 25t-38.5 21.5t-40.5 18
t-42 14t-43 10t-44.5 6t-45.5 2q-45 0 -89 -8t-85 -24t-79.5 -39.5t-71.5 -53.5l-35 35l33 33q5 5 6.5 11.5t0 13.5t-6.5 12q-4 3 -8.5 5t-9.5 2t-10 -2t-8 -5l-103 -103q-7 -7 -7 -18t7 -18q4 -4 8.5 -6t9.5 -2q11 0 19 8l33 33l35 -35q-61 -67 -93 -151t-32 -175
q0 -95 35.5 -182.5t101.5 -155.5l-104 -104q-7 -8 -7 -18.5t7 -17.5q4 -4 8.5 -6t9.5 -2q11 0 18 8l106 105q135 -113 311.5 -113t311.5 113l106 -105q3 -4 8 -6t10 -2q10 0 18 8q5 4 6.5 11t0 13.5t-6.5 11.5zM51 358q0 60 16 116t44 104t68 88t88 68t104 44t115 16
q89 0 169.5 -34.5t139 -93t93 -139t34.5 -169.5q0 -180 -128 -307.5t-308 -127.5q-88 0 -168.5 34.5t-139 93t-93 139t-34.5 168.5zM775 525q-6 9 -16 11.5t-19 -2.5l-252 -145l-197 137q-8 6 -18.5 4.5t-16.5 -10.5t-4.5 -19.5t10.5 -16.5l210 -147q1 0 1 -1h1l1 -1h2l1 -1
h2q0 -1 1 -1h11q1 1 2 1h1l3 1v1h1l266 154q9 5 12 15.5t-2 19.5z" />
    <glyph glyph-name="uniE683" unicode="&#xe683;" 
d="M992 454l-390 404q-19 19 -42.5 28.5t-47.5 9.5q-51 0 -90 -38l-390 -404q-41 -48 -26 -96q0 -4 6.5 -12.5t22 -17t35.5 -8.5h58v-314q0 -54 35 -94t87 -40h166v354q0 4 0.5 10.5t2.5 9t5.5 5.5t9.5 4t14 1h128q8 0 14 -1t9.5 -4t5.5 -5.5t2.5 -9t0.5 -10.5v-354h166
q52 0 87 40t35 94v314h58q20 0 35.5 8.5t22 17t6.5 12.5q14 49 -26 96zM954 384h-122v-378q0 -29 -17 -49.5t-41 -20.5h-102v262q0 57 -23 89.5t-73 32.5h-128q-96 0 -96 -122v-262h-102q-23 0 -40.5 22.5t-17.5 47.5v378h-122v6q0 3 1 5t3.5 5t4 4.5t4.5 5.5l391 403
q4 9 15.5 14t22.5 5q26 0 45 -19l390 -403q0 -4 3.5 -13.5t3.5 -12.5z" />
    <glyph glyph-name="uniE684" unicode="&#xe684;" 
d="M929 61l-192 192q35 45 54.5 100t19.5 114q0 95 -47 175.5t-127.5 127.5t-175.5 47t-175.5 -47t-127.5 -127.5t-47 -175.5t47 -175.5t127.5 -127.5t175.5 -47q120 0 215 74l191 -192q13 -13 31 -13q6 0 11.5 1.5t10.5 4.5t9 7q13 13 13 31t-13 31zM199 467
q0 109 77 185.5t185 76.5q71 0 131.5 -35t95.5 -95.5t35 -131.5q0 -108 -76.5 -185t-185 -77t-185.5 77t-77 186v-1z" />
    <glyph glyph-name="uniE685" unicode="&#xe685;" 
d="M548 358l289 289q3 3 5 7t2.5 8t0 7.5t-2.5 7.5t-5 7q-7 7 -17.5 7t-18.5 -7l-289 -289l-289 289q-8 7 -18.5 7t-17.5 -7q-4 -4 -6 -9t-2 -9.5t2 -9.5t6 -9l289 -289l-289 -289q-8 -7 -8 -17.5t7.5 -18t18 -7.5t18.5 7l289 289l289 -289q8 -7 18 -7q11 0 18 7q8 8 8 18.5
t-8 17.5z" />
    <glyph glyph-name="uniE686" unicode="&#xe686;" 
d="M734 173l-209 185l209 186q8 7 8.5 17.5t-6.5 18.5t-17.5 8.5t-18.5 -6.5l-214 -189l-213 189q-8 7 -18.5 6.5t-17.5 -8.5t-6.5 -18.5t8.5 -17.5l209 -186l-209 -185q-8 -7 -8.5 -17.5t6.5 -18.5q8 -9 19 -9q10 0 17 6l213 190l214 -190q7 -6 17 -6q5 0 10 2t9 7
q7 8 6.5 18.5t-8.5 17.5zM486 -128q-97 0 -186 37t-157.5 105.5t-105.5 157.5t-37 186.5t37 186t105.5 157.5t157.5 106t186 37q39 0 77 -6t74 -18t70 -29t65 -39.5t58 -50.5q69 -69 106 -157.5t37 -186t-37 -186.5t-106 -157.5t-157.5 -105.5t-185.5 -37h-1zM486 794
q-59 0 -115 -16t-104 -44t-88 -68t-68 -88t-44 -104.5t-16 -115.5q0 -88 34.5 -168.5t93 -139t139 -93t169 -34.5t169 34.5t139 93t93 139t34.5 168.5q0 167 -112 291q-107 120 -266 141q-29 4 -58 4z" />
    <glyph glyph-name="uniE687" unicode="&#xe687;" horiz-adv-x="1025" 
d="M925 814q-19 12 -45.5 23t-60.5 21q-139 38 -333 38t-332 -38q-68 -19 -106 -44q-48 -32 -48 -72v-614q0 -40 48 -71q38 -25 106 -44q138 -39 332.5 -39t332.5 39q68 19 106 44q48 31 48 71v614q0 20 -12 38t-36 34zM167 808q64 18 146.5 27.5t172.5 9.5q188 0 319 -37
q17 -4 31.5 -9t25.5 -10t20.5 -10t15.5 -9t11 -8t7.5 -8t4 -6.5t1.5 -5.5q0 -7 -9 -16.5t-37 -23.5t-71 -25q-63 -18 -145.5 -27.5t-173.5 -9.5q-187 0 -319 37q-32 9 -56 19t-36.5 19t-18 15.5t-5.5 11.5q0 7 9 16.5t37 23.5t70 26zM805 62q-42 -12 -93 -20t-108 -12
t-118 -4q-187 0 -319 36q-42 12 -70 26t-37 23.5t-9 16.5v131q38 -23 103 -41q138 -39 332.5 -39t332.5 39q65 18 103 41v-131q0 -7 -9 -16.5t-37 -23.5t-71 -26zM805 267q-63 -18 -145.5 -27.5t-173.5 -9.5q-187 0 -319 37q-42 12 -70 26t-37 23.5t-9 16.5v131
q19 -12 45 -22.5t58 -19.5q138 -38 332 -38q195 0 333 38q65 18 103 42v-131q0 -7 -9 -16.5t-37 -23.5t-71 -26zM805 472q-63 -18 -145.5 -27.5t-173.5 -9.5q-187 0 -319 37q-42 12 -70 26t-37 23.5t-9 16.5v131q38 -24 103 -42q67 -18 152.5 -28t179.5 -10q195 0 333 38
q65 18 103 42v-131q0 -7 -9 -16.5t-37 -23.5t-71 -26z" />
    <glyph glyph-name="uniE688" unicode="&#xe688;" horiz-adv-x="1025" 
d="M998 544l-76 192q-9 27 -23 47t-27.5 30t-23.5 14.5t-16 4.5h-634q-32 -1 -57 -26q-19 -12 -45 -64q-88 -204 -96 -262v-26q0 -18 5 -36t14.5 -33t22 -27.5t28 -22t32.5 -15.5v-282q0 -42 32.5 -72t76.5 -30h608q44 0 76.5 30t32.5 72v288q44 15 70 51t26 84v6
q0 10 -2.5 21.5t-8 26t-15.5 29.5zM813 -6h-602q-9 0 -18.5 3.5t-16.5 10t-11.5 16t-4.5 21.5v269q64 0 109 44q13 13 13 20q0 -4 3 -7t3 -6q51 -51 102 -51q60 0 103 32l19 19q13 -13 19 -13q20 -15 47 -23.5t56 -8.5q57 0 102 45l13 13q0 -3 1.5 -5t5 -4t6.5 -4
q20 -21 49 -33t66 -12v-275q-5 -24 -22.5 -37.5t-41.5 -13.5zM966 461q0 -19 -6.5 -35.5t-18.5 -28.5t-28.5 -19t-35.5 -7q-17 0 -30 2.5t-25.5 8t-21.5 15.5q-5 5 -9 12.5t-6 14t-3 12t-1 9.5v3q0 19 -26 32q-3 0 -6.5 -0.5t-7 -2t-7 -3.5t-6 -4.5t-4 -6.5t-1.5 -9
q-5 -30 -31 -56.5t-58 -26.5q-38 0 -64 17.5t-26 53.5q0 4 -2.5 9t-6.5 8.5t-10 5.5t-13 2q-14 0 -23 -7.5t-9 -17.5q0 -36 -26 -53.5t-64 -17.5q-25 0 -57 32t-32 71q0 9 -11 17t-21 8q-18 0 -24 -20q-2 -6 -2 -12q1 -5 1.5 -13t-4.5 -27t-16 -30q-10 -10 -20 -15.5
t-23.5 -8t-33.5 -2.5q-38 0 -63.5 25.5t-25.5 64.5v19q14 70 96 243q5 18 15 30.5t17.5 16.5t11.5 4h628q3 0 9.5 -4.5t16.5 -18.5t18 -34l77 -192q9 -15 13.5 -27t5 -18.5t0.5 -18.5v0z" />
    <glyph glyph-name="uniE689" unicode="&#xe689;" 
d="M518 544l384 -384q7 -6 15 -8.5t16 0t14 8.5q10 10 10 22.5t-10 22.5l-403 403q-13 13 -26 13h-6q-2 0 -6 -0.5t-7.5 -2t-5.5 -4.5l-410 -409q-9 -6 -12.5 -14.5t-2 -16.5t8 -14t14.5 -8.5t16 0t15 8.5z" />
    <glyph glyph-name="uniE68A" unicode="&#xe68a;" 
d="M653 429q53 34 84 89.5t31 121.5q0 106 -75 181t-181 75t-181 -75t-75 -181q0 -66 31 -121.5t84 -89.5q-135 -39 -221 -140t-86 -225q0 -49 23.5 -84t61.5 -55.5t98.5 -32.5t121.5 -16t143 -4q70 0 120.5 2.5t105.5 9t92 20t68.5 34t46.5 52.5t15 74q0 82 -39.5 156.5
t-109 128.5t-158.5 80zM320 640q0 82 55 137t137 55t137 -55t55 -137t-55 -137t-137 -55t-137 55t-55 137zM512 -64q-87 0 -150 5t-119.5 18t-85.5 39.5t-29 65.5q0 134 112.5 227t271.5 93t271.5 -93t112.5 -227q0 -39 -29 -65.5t-85.5 -39.5t-119.5 -18t-150 -5z" />
    <glyph glyph-name="uniE68B" unicode="&#xe68b;" 
d="M928 166h-128v128q0 15 -9 23.5t-23 8.5q-10 0 -17 -4t-11 -11t-4 -17v-128h-128q-14 0 -23 -8.5t-9 -23t9 -23.5t23 -9h128v-128q0 -14 9 -23t23 -9t23 9t9 23v128h128q14 0 23 9t9 23.5t-9 23t-23 8.5zM659 -58q-24 -3 -51 -4.5t-45 -1.5h-51q-87 0 -150 5t-119.5 18
t-85.5 39.5t-29 65.5q0 134 112.5 227t271.5 93q46 0 89 -8.5t84 -23.5h6q10 0 17 4t11 11t4 17q0 9 -7.5 18t-17.5 14q-7 3 -23 9.5t-22 9.5q53 29 84 83.5t31 121.5q0 106 -75 181t-181 75t-181 -75t-75 -181q0 -66 31 -121.5t84 -89.5q-135 -39 -221 -140t-86 -225
q0 -49 23.5 -84t61.5 -55.5t98.5 -32.5t121.5 -16t143 -4q96 0 141 6q9 0 16.5 4t11.5 11.5t4 16.5q4 10 -6 21t-20 11zM320 640q0 82 55 137t137 55t137 -55t55 -137t-55 -137t-137 -55t-137 55t-55 137z" />
    <glyph glyph-name="uniE68C" unicode="&#xe68c;" 
d="M760 402q-4 5 -11 6.5t-13.5 0t-11.5 -6.5l-212 -212v578q0 11 -7.5 18.5t-18 7.5t-18 -7.5t-7.5 -18.5v-578l-212 212q-4 4 -9 6t-9.5 2t-9.5 -2t-9 -6q-7 -7 -7 -18t7 -18l256 -256q3 -3 6 -4.5t6 -2.5t6 -1q11 1 19 8l256 256q3 4 5 8.5t2 9.5t-2 9.5t-5 8.5h-1z
M896 -77h-819q-32 0 -54.5 22.5t-22.5 54.5v102q0 11 7.5 18.5t18 7.5t18 -7.5t7.5 -18.5v-102q0 -11 7.5 -18.5t18.5 -7.5h819q11 0 18.5 7.5t7.5 18.5v102q0 7 3 13t9 9.5t13 3.5q11 0 18.5 -7.5t7.5 -18.5v-102q0 -21 -10.5 -38.5t-28 -28t-38.5 -10.5z" />
    <glyph glyph-name="uniE68D" unicode="&#xe68d;" 
d="M512 -128q-128 0 -217 95q-90 95 -90 238q0 54 10 103t33.5 99.5t41.5 82t53 87.5q37 60 56.5 93.5t46 92t41.5 114.5q2 6 5.5 10t8.5 6.5t11 2.5q20 0 25 -19q15 -56 41.5 -114.5t46 -92.5t56.5 -93q35 -56 53 -87.5t41.5 -82t33.5 -99.5t10 -103q0 -35 -6 -68t-17 -63
t-28 -57.5t-38 -49.5q-43 -46 -99.5 -70.5t-118.5 -24.5zM512 788q-16 -43 -39.5 -88.5t-39.5 -73t-46 -76.5q-23 -37 -34.5 -56t-30 -52t-28 -56.5t-19.5 -54.5t-14.5 -62t-4.5 -64q0 -121 73.5 -201.5t182.5 -80.5t182.5 80.5t73.5 201.5q0 28 -4 56.5t-9.5 51t-16.5 50.5
t-19.5 46.5t-25 47.5t-26.5 45.5t-29 47.5q-23 37 -35 57t-31 53t-33.5 64t-26.5 64z" />
    <glyph glyph-name="uniE68E" unicode="&#xe68e;" 
d="M896 704h-768q-29 0 -46.5 -17.5t-17.5 -46.5v-512q0 -29 17.5 -46.5t46.5 -17.5h768q29 0 46.5 17.5t17.5 46.5v512q0 29 -17.5 46.5t-46.5 17.5zM896 192q0 -29 -17.5 -46.5t-46.5 -17.5h-640q-29 0 -46.5 17.5t-17.5 46.5v384q0 29 17.5 46.5t46.5 17.5h640
q29 0 46.5 -17.5t17.5 -46.5v-384zM429 410q19 28 19 57q0 39 -29 67.5t-67 28.5q-25 0 -47.5 -13t-35.5 -35.5t-13 -47.5q0 -29 19 -57q-38 -20 -60.5 -56t-22.5 -79q0 -25 33 -42.5t80 -21.5t94 0t80 21.5t33 42.5q0 43 -22.5 79t-60.5 56zM320 467q0 15 9 23.5t23 8.5
q10 0 17 -4t11 -11t4 -17q0 -14 -9 -23t-23 -9q-10 0 -17 4t-11 11.5t-4 16.5zM256 275q0 39 29 67.5t67 28.5q25 0 47.5 -13t35.5 -35.5t13 -47.5q0 -12 -48 -17t-96 0t-48 17zM608 480h192q14 0 23 9t9 23t-9 23t-23 9h-192q-14 0 -23 -9t-9 -23t9 -23t23 -9zM800 416
h-128q-14 0 -23 -9t-9 -23t9 -23t23 -9h128q14 0 23 9t9 23t-9 23t-23 9zM800 288h-256q-14 0 -23 -9t-9 -23t9 -23t23 -9h256q14 0 23 9t9 23t-9 23t-23 9z" />
    <glyph glyph-name="uniE68F" unicode="&#xe68f;" horiz-adv-x="1025" 
d="M512 282q-6 0 -10 2l-486 204q-16 7 -16 24t16 24l486 204q10 5 20 0l486 -204q16 -7 16 -24t-16 -24l-486 -204q-5 -2 -10 -2zM92 512l420 -177l420 177l-420 177zM512 128q-6 0 -10 2l-486 205q-10 4 -14 14t0 19.5t14 13.5t20 0l476 -201l476 201q7 3 13.5 2t12 -5
t8.5 -11q3 -6 2 -12.5t-5 -12.5t-11 -8l-486 -205q-5 -2 -10 -2zM512 -26q-6 1 -10 2l-486 205q-10 4 -14 14t0 20t14 14t20 -1l476 -200l476 200q10 5 20 1t14 -14t0 -20t-14 -14l-486 -205q-2 -1 -4.5 -1.5t-5.5 -0.5z" />
    <glyph glyph-name="uniE690" unicode="&#xe690;" horiz-adv-x="1025" 
d="M1018 887q-8 9 -20 9h-26q-166 0 -248 -1t-187.5 -9.5t-176.5 -25.5q-119 -28 -190 -89q-77 -65 -107 -175q-12 -32 -12 -99t19 -128q15 -50 46 -93q-116 -181 -116 -378q0 -6 2 -10.5t5.5 -8t8 -5.5t10.5 -2q7 0 12.5 3.5t9 9.5t3.5 13q0 67 15.5 133.5t38.5 117.5
t55 100.5t58.5 81.5t55.5 60q92 92 196 146q47 25 91 38.5t79 13.5h4q2 0 4 1t4 1.5t4 2.5l2 2q2 2 3 4l2 2q1 2 1 4l2 4v4q0 11 -7.5 18.5t-18.5 7.5q-42 0 -91 -14.5t-103 -42.5q-111 -59 -208 -155q-49 -50 -91 -106q-19 29 -28 61q-12 39 -15 81t-0.5 70t8.5 48
q12 43 33.5 78t44.5 61t66 45.5t75.5 33t97.5 22t107.5 13.5t129.5 7t140.5 2.5t161.5 0.5q-91 -485 -334 -620q-52 -29 -108.5 -40.5t-105 -6t-81 13t-60.5 19.5q-4 2 -9 4l-8 4q-5 2 -9.5 4.5t-8.5 5.5q-2 1 -4.5 2t-4.5 1h-9q-2 0 -4 -1l-4 -2q-2 -1 -4 -3l-2 -2
q-2 -2 -3 -4q-4 -6 -4 -13t3.5 -13t8.5 -9q21 -13 43 -22q70 -28 147 -35q4 0 8 -0.5t9 -0.5h8q4 0 8 -0.5t8 -0.5q114 0 211 54q124 69 212 221q51 88 89.5 205t63.5 260q2 12 -6 21z" />
    <glyph glyph-name="uniE691" unicode="&#xe691;" horiz-adv-x="1025" 
d="M435 -128l-6 1q-9 2 -14 9t-5 16v384h-384q-9 0 -16 5t-9 14q-5 18 12 28l973 563q17 9 30.5 -4.5t4.5 -30.5l-564 -972q-7 -13 -22 -13zM121 333h314q11 0 18.5 -7.5t7.5 -18.5v-314l467 806z" />
    <glyph glyph-name="uniE692" unicode="&#xe692;" 
d="M742 486h-25v77q0 63 -31 116t-84 84t-116 31q-95 0 -162.5 -68t-67.5 -163v-77h-26q-31 0 -53.5 -22.5t-22.5 -53.5v-410q0 -32 22.5 -54.5t53.5 -22.5h512q16 0 30 6t24.5 16.5t16.5 24.5t6 30v410q0 20 -10 38t-28 28t-39 10zM307 563q0 49 24 90t65.5 65t89.5 24
q37 0 70 -14t57 -38t38.5 -57t14.5 -70v-77h-359v77zM768 0q0 -5 -2 -10t-5.5 -8.5t-8 -5.5t-10.5 -2h-512q-4 0 -8 1.5t-7 4t-5.5 5.5t-3.5 7t-1 8v410q0 10 7.5 17.5t17.5 7.5h512q11 0 18.5 -7.5t7.5 -17.5v-410z" />
    <glyph glyph-name="uniE693" unicode="&#xe693;" 
d="M928 0h-800v800q0 14 -9 23t-23 9t-23 -9t-9 -23v-832q0 -14 9 -23t23 -9h832q14 0 23 9t9 23t-9 23t-23 9zM243 64h96q13 0 23 7.5t16 19t6 24.5v218q0 13 -6 24.5t-16 19t-23 7.5h-96q-23 0 -37 -15.5t-14 -35.5v-211q0 -25 14 -41.5t37 -16.5zM256 301q0 2 0.5 4
t1.5 3l2 4q1 1 3 2l4 2q2 1 4.5 2t5 1.5t5.5 0.5h6q7 0 13 -1t10 -3.5t6.5 -6t2.5 -8.5v-154q0 -19 -32 -19t-32 19v154zM499 64h96q19 0 35 16t16 35v410q-5 21 -19 36t-32 15h-96q-23 0 -37 -15.5t-14 -35.5v-403q0 -12 3.5 -22.5t10 -18.5t16 -12.5t21.5 -4.5zM512 493
q0 19 32 19t32 -19v-346q0 -19 -32 -19t-32 19v346zM755 64h96q19 0 35 16t16 35v538q-5 21 -19 36t-32 15h-96q-23 0 -37 -15.5t-14 -35.5v-531q0 -25 14 -41.5t37 -16.5zM768 621q0 19 32 19t32 -19v-474q-2 -18 -32 -19q-31 1 -32 19v474z" />
    <glyph glyph-name="uniE694" unicode="&#xe694;" 
d="M966 -85l-304 332q106 111 106 265q0 38 -7.5 75.5t-21.5 71.5t-35 65.5t-48 59.5q-55 54 -125 83t-147 29t-147 -29t-124.5 -83.5t-83.5 -124.5t-29 -147t29 -147t83.5 -124.5t124.5 -83.5t147 -29q135 0 240 84l304 -332q2 -1 3 -2t2.5 -2t3.5 -2t3.5 -1.5t3.5 -0.5h3
q10 0 18 7q7 7 7.5 17.5t-6.5 18.5zM51 512q0 90 44.5 167t121.5 121.5t167 44.5t167 -44.5t121.5 -121.5t44.5 -167q0 -54 -17 -105t-47.5 -92t-71.5 -71.5t-92 -47.5t-105 -17q-90 0 -167 44.5t-121.5 121.5t-44.5 167z" />
    <glyph glyph-name="uniE695" unicode="&#xe695;" 
d="M947 640h-153q25 34 25 77q0 53 -37.5 90.5t-90.5 37.5q-82 0 -160 -90q-26 -30 -45 -63q-8 16 -19.5 32t-24.5 31q-19 21 -39.5 39t-54.5 34.5t-66 16.5q-53 0 -90.5 -37.5t-37.5 -90.5q0 -14 3 -28t8.5 -26t13.5 -23h-153q-6 0 -10.5 -2t-8 -5.5t-5.5 -8t-2 -10.5v-153
q0 -11 7.5 -18.5t18.5 -7.5h25v-486q0 -32 22.5 -54.5t54.5 -22.5h717q32 0 54.5 22.5t22.5 54.5v486h25q11 0 18.5 7.5t7.5 18.5v153q0 6 -2 10.5t-5.5 8t-8.5 5.5t-10 2zM570 721q63 73 121 73q21 0 38.5 -10.5t28 -28t10.5 -38.5q0 -13 -4 -24.5t-11 -21t-16.5 -16.5
t-21 -11t-24.5 -4h-173q17 41 52 81zM563 -77h-153v666h153v-666zM205 717q0 32 22.5 54.5t54.5 22.5q58 0 121 -73q36 -41 52 -81h-173q-32 0 -54.5 22.5t-22.5 54.5zM51 589h307v-103h-307v103zM102 -51v486h256v-512h-230q-11 0 -18.5 7.5t-7.5 18.5zM870 -51q0 -4 -1 -8
t-3.5 -7t-5.5 -5.5t-7 -4t-8 -1.5h-231v512h256v-486zM922 486h-308v103h308v-103z" />
    <glyph glyph-name="uniE696" unicode="&#xe696;" horiz-adv-x="1025" 
d="M955 536l-461 154q-8 3 -16 0l-460 -154q-6 -1 -10 -5t-6 -9t-2 -10q0 -18 18 -24l136 -46v-135q0 -5 1.5 -9.5t5.5 -8.5q3 -3 8.5 -7.5t21 -16t33.5 -22t46.5 -22.5t59 -21t72 -15t84.5 -6q117 0 215 42q10 4 14 13.5t0 19.5t-14 14t-20 0q-44 -19 -93 -28.5t-102 -9.5
q-120 0 -216 48q-10 4 -18.5 9t-15.5 9.5t-13 9t-10.5 7.5t-7.5 6v106l273 -91q4 -1 8 -1h4q3 0 5 1l273 91v-45q-23 -8 -37 -28t-14 -45q0 -15 5.5 -29t16 -24.5t24.5 -16.5l-45 -180q-3 -12 4.5 -21.5t19.5 -9.5h103q12 0 20 9.5t5 21.5l-45 180q20 9 32.5 28t12.5 42
q0 25 -14 45t-37 28v62l136 46q6 1 9.5 5t6 9t2.5 10q0 18 -18 24zM794 333q10 0 17.5 -7.5t7.5 -18.5q0 -5 -2 -9.5t-5.5 -8t-8 -5.5t-9.5 -2q-4 0 -7.5 0.5t-6.5 2.5l-4 4q-3 2 -4.5 5t-2.5 6.5t-1 6.5q0 5 2 10t5.5 8.5t8 5.5t10.5 2zM775 77l19 73l18 -73h-37zM792 487
l-301 50q-7 1 -13.5 -1t-11 -7.5t-5.5 -12.5q-2 -10 4.5 -18.5t16.5 -10.5l206 -34l-202 -68l-379 127l379 127l380 -127z" />
    <glyph glyph-name="uniE697" unicode="&#xe697;" 
d="M819 717v25q0 31 -37 52q-13 8 -31 15t-41 13q-93 23 -224 23q-63 0 -120.5 -6t-102.5 -17q-46 -12 -73 -28q-36 -21 -36 -52v-25q0 -101 56 -185t148 -123v-102q-92 -38 -148 -122t-56 -185v-26q0 -6 1.5 -11.5t4 -11t7 -10.5t10.5 -9.5t13 -9.5q27 -15 73 -27
q93 -23 223.5 -23t223.5 23q15 4 28.5 8.5t24.5 9t19 9.5q19 11 28 24t9 28v26q0 101 -56 185t-149 122v102q93 39 149 123t56 185zM287 775q85 19 199 19q56 0 107.5 -5t91.5 -14q65 -15 82 -33q-17 -17 -82 -32q-84 -19 -199 -19q-22 0 -43.5 1t-42.5 2.5t-40.5 3.5
t-37.5 5t-35 7q-64 15 -81 32q17 18 81 33zM580 266q84 -30 136 -103.5t52 -162.5v-24q-13 -18 -83 -34q-40 -9 -91.5 -14t-107.5 -5q-114 0 -199 19q-69 16 -82 34v24q0 59 23.5 112.5t66 93.5t98.5 60q5 1 8.5 5t6 8.5t2.5 10.5v137q0 8 -5 14.5t-12 9.5q-30 11 -57 28
t-48.5 39t-38.5 48t-27.5 55.5t-14.5 60.5q23 -11 56 -19q93 -23 223 -23q63 0 121 6t103 17q16 4 30 9t26 10q-10 -79 -60 -141.5t-126 -89.5q-5 -2 -9 -5.5t-6 -8.5t-2 -10v-137q1 -18 17 -24zM700 50q-87 30 -137.5 99.5t-50.5 157.5v155q15 2 30 5t29.5 8.5t28.5 11.5
q5 3 8.5 7t5 8.5t1 9.5t-2.5 10q-5 9 -15 12.5t-20 -1.5q-42 -21 -91 -21q-24 0 -46.5 5.5t-44.5 15.5q-9 5 -19 1.5t-15 -13t-1.5 -19.5t13.5 -15q41 -20 88 -25v-155q0 -58 -23 -109.5t-65 -89.5t-100 -58q-18 -7 -17 -26q1 -8 6.5 -15t13.5 -8q117 -27 210 -27
q56 0 108.5 7.5t102.5 19.5q19 4 20 23q0 19 -17 26zM486 26q-59 0 -124 10q51 33 87 81q23 30 37 64q15 -34 38 -64q35 -48 87 -81q-20 -3 -39 -5.5t-41.5 -3.5t-44.5 -1z" />
    <glyph glyph-name="uniE698" unicode="&#xe698;" 
d="M896 -128h-768q-29 0 -46.5 17.5t-17.5 46.5v448q0 29 17.5 46.5t46.5 17.5h64v160q0 120 84 204t204 84h64q120 0 204 -84t84 -204v-160h64q29 0 46.5 -17.5t17.5 -46.5v-448q0 -29 -17.5 -46.5t-46.5 -17.5zM768 608q0 91 -66.5 157.5t-157.5 66.5h-64
q-91 0 -157.5 -66.5t-66.5 -157.5v-160h512v160zM896 320q0 29 -17.5 46.5t-46.5 17.5h-640q-29 0 -46.5 -17.5t-17.5 -46.5v-320q0 -29 17.5 -46.5t46.5 -17.5h640q29 0 46.5 17.5t17.5 46.5v320zM448 256q0 29 17.5 46.5t46.5 17.5t46.5 -17.5t17.5 -46.5q0 -38 -64 -192
q-64 154 -64 192z" />
    </font>
</defs>
</svg>
